<svg width="98" height="98" viewBox="0 0 98 98" fill="none" xmlns="http://www.w3.org/2000/svg">
<rect x="9.75" y="9.75" width="78" height="78" rx="39" fill="#FC9F0B"/>
<path d="M66.6002 35.0833H63.8135V33.69C63.8135 33.5211 63.7502 33.3733 63.6235 33.2467C63.4969 33.12 63.3491 33.0567 63.1802 33.0567C60.3935 33.0567 58.1135 33.1833 56.3402 33.4367C54.9046 33.6056 53.258 33.9433 51.4002 34.45V34.3233C51.4002 33.5633 51.1469 32.93 50.6402 32.4233C50.1335 31.9167 49.5002 31.6633 48.7402 31.6633C47.9802 31.6633 47.3469 31.9167 46.8402 32.4233C46.3335 32.93 46.0802 33.5633 46.0802 34.3233V34.45C44.2224 33.9433 42.5758 33.6056 41.1402 33.4367C39.3669 33.1833 37.0869 33.0567 34.3002 33.0567C34.1313 33.0567 33.9835 33.12 33.8569 33.2467C33.7302 33.3733 33.6669 33.5211 33.6669 33.69V35.0833H30.8802C30.7113 35.0833 30.5846 35.1467 30.5002 35.2733C30.4158 35.4 30.3735 35.5478 30.3735 35.7167V61.3033C30.3735 61.4722 30.4158 61.62 30.5002 61.7467C30.5846 61.8733 30.7113 61.9367 30.8802 61.9367H45.5735C45.5735 62.5278 45.7635 62.9922 46.1435 63.33C46.5235 63.6678 46.9669 63.8367 47.4735 63.8367H50.0069C50.598 63.8367 51.0624 63.6678 51.4002 63.33C51.738 62.9922 51.9069 62.5278 51.9069 61.9367H66.6002C66.7691 61.9367 66.8958 61.8733 66.9802 61.7467C67.0646 61.62 67.1069 61.4722 67.1069 61.3033V35.7167C67.1069 35.5478 67.0646 35.4 66.9802 35.2733C66.8958 35.1467 66.7691 35.0833 66.6002 35.0833ZM62.6735 34.1967V57.8833C56.9313 57.8833 52.498 58.6433 49.3735 60.1633V52.31H60.9002C61.1535 52.31 61.3224 52.2467 61.4069 52.12C61.4913 51.9933 61.5335 51.8456 61.5335 51.6767C61.4491 50.7478 61.1535 49.9456 60.6469 49.27C60.1402 48.5944 59.5069 48.0878 58.7469 47.75C59.2535 47.2433 59.5069 46.6311 59.5069 45.9133C59.5069 45.1956 59.2535 44.5622 58.7469 44.0133C58.2402 43.4644 57.6069 43.19 56.8469 43.19L56.3402 43.3167C55.8335 42.7256 55.2424 42.3033 54.5669 42.05C55.158 41.4589 55.4535 40.8044 55.4535 40.0867C55.4535 39.3689 55.1791 38.7356 54.6302 38.1867C54.0813 37.6378 53.4269 37.3633 52.6669 37.3633L52.2869 37.49C51.8646 36.8989 51.3158 36.4767 50.6402 36.2233L51.0202 35.7167C53.0469 35.21 54.6935 34.83 55.9602 34.5767C57.7335 34.4078 59.9713 34.2811 62.6735 34.1967ZM44.4335 49.7767C43.9269 48.8478 43.2091 48.1722 42.2802 47.75C42.618 47.4122 42.8291 46.99 42.9135 46.4833H45.9535C46.038 46.99 46.2913 47.4122 46.7135 47.75C45.7002 48.1722 44.9402 48.8478 44.4335 49.7767ZM38.8602 45.85C38.8602 45.4278 39.008 45.09 39.3035 44.8367C39.5991 44.5833 39.958 44.4567 40.3802 44.4567C40.8024 44.4567 41.1613 44.5833 41.4569 44.8367C41.7524 45.09 41.9002 45.4278 41.9002 45.85C41.9002 46.2722 41.7524 46.6311 41.4569 46.9267C41.1613 47.2222 40.8024 47.37 40.3802 47.37C39.958 47.37 39.5991 47.2222 39.3035 46.9267C39.008 46.6311 38.8602 46.2722 38.8602 45.85ZM42.9135 40.15C42.9135 39.7278 43.0613 39.3689 43.3569 39.0733C43.6524 38.7778 44.0113 38.63 44.4335 38.63C44.8558 38.63 45.2146 38.7778 45.5102 39.0733C45.8058 39.3689 45.9535 39.7278 45.9535 40.15C45.9535 40.5722 45.8058 40.91 45.5102 41.1633C45.2146 41.4167 44.8558 41.5433 44.4335 41.5433C44.0113 41.5433 43.6524 41.4167 43.3569 41.1633C43.0613 40.91 42.9135 40.5722 42.9135 40.15ZM48.7402 36.9833C49.6691 36.9833 50.4713 37.2789 51.1469 37.87C50.5558 38.2922 50.218 38.8411 50.1335 39.5167H47.0935C46.9246 38.9256 46.6291 38.4189 46.2069 37.9967C46.8824 37.3211 47.7269 36.9833 48.7402 36.9833ZM52.6669 49.7767C52.1602 48.8478 51.4424 48.1722 50.5135 47.75C50.8513 47.4122 51.1046 46.99 51.2735 46.4833H54.1869C54.3558 46.99 54.6091 47.4122 54.9469 47.75C53.9335 48.1722 53.1735 48.8478 52.6669 49.7767ZM48.6135 47.37C48.1913 47.37 47.8324 47.2222 47.5369 46.9267C47.2413 46.6311 47.0935 46.2722 47.0935 45.85C47.0935 45.4278 47.2413 45.09 47.5369 44.8367C47.8324 44.5833 48.1913 44.4567 48.6135 44.4567C49.0358 44.4567 49.3946 44.5833 49.6902 44.8367C49.9858 45.09 50.1335 45.4278 50.1335 45.85C50.1335 46.2722 49.9858 46.6311 49.6902 46.9267C49.3946 47.2222 49.0358 47.37 48.6135 47.37ZM46.3335 42.05C46.7558 41.6278 47.0091 41.1633 47.0935 40.6567H48.1069V43.19V43.3167C47.6002 42.7256 47.0091 42.3033 46.3335 42.05ZM50.1335 40.6567C50.218 41.1633 50.4291 41.6278 50.7669 42.05C50.2602 42.3033 49.7958 42.6411 49.3735 43.0633V40.6567H50.1335ZM56.8469 48.6367C57.6069 48.6367 58.3035 48.8689 58.9369 49.3333C59.5702 49.7978 60.0135 50.3678 60.2669 51.0433H53.4269C53.6802 50.3678 54.1235 49.7978 54.7569 49.3333C55.3902 48.8689 56.0869 48.6367 56.8469 48.6367ZM56.8469 47.37C56.4246 47.37 56.0658 47.2222 55.7702 46.9267C55.4746 46.6311 55.3269 46.2722 55.3269 45.85C55.3269 45.4278 55.4746 45.09 55.7702 44.8367C56.0658 44.5833 56.4246 44.4567 56.8469 44.4567C57.2691 44.4567 57.628 44.5833 57.9235 44.8367C58.2191 45.09 58.3669 45.4278 58.3669 45.85C58.3669 46.2722 58.2191 46.6311 57.9235 46.9267C57.628 47.2222 57.2691 47.37 56.8469 47.37ZM54.1869 45.3433H51.2735C51.1046 44.6678 50.7669 44.1611 50.2602 43.8233C50.9358 43.1478 51.7591 42.81 52.7302 42.81C53.7013 42.81 54.5246 43.1478 55.2002 43.8233C54.6935 44.1611 54.3558 44.6678 54.1869 45.3433ZM52.6669 41.5433C52.2446 41.5433 51.8858 41.4167 51.5902 41.1633C51.2946 40.91 51.1469 40.5722 51.1469 40.15C51.1469 39.7278 51.2946 39.3689 51.5902 39.0733C51.8858 38.7778 52.2446 38.63 52.6669 38.63C53.0891 38.63 53.448 38.7778 53.7435 39.0733C54.0391 39.3689 54.1869 39.7278 54.1869 40.15C54.1869 40.5722 54.0391 40.91 53.7435 41.1633C53.448 41.4167 53.0891 41.5433 52.6669 41.5433ZM46.9669 43.8233C46.4602 44.1611 46.1224 44.6678 45.9535 45.3433H42.9135C42.8291 44.6678 42.5335 44.1611 42.0269 43.8233C42.7024 43.1478 43.5258 42.81 44.4969 42.81C45.468 42.81 46.2913 43.1478 46.9669 43.8233ZM40.3802 48.6367C41.1402 48.6367 41.8369 48.8689 42.4702 49.3333C43.1035 49.7978 43.5469 50.3678 43.8002 51.0433H36.9602C37.2135 50.3678 37.6358 49.7978 38.2269 49.3333C38.818 48.8689 39.5358 48.6367 40.3802 48.6367ZM48.6135 48.6367C49.3735 48.6367 50.0702 48.8689 50.7035 49.3333C51.3369 49.7978 51.7802 50.3678 52.0335 51.0433H45.1935C45.4469 50.3678 45.8691 49.7978 46.4602 49.3333C47.0513 48.8689 47.7691 48.6367 48.6135 48.6367ZM48.7402 32.8033C49.1624 32.8033 49.5213 32.9511 49.8169 33.2467C50.1124 33.5422 50.2602 33.9011 50.2602 34.3233C50.2602 34.7456 50.1124 35.1044 49.8169 35.4C49.5213 35.6956 49.1624 35.8433 48.7402 35.8433C48.318 35.8433 47.9591 35.6956 47.6635 35.4C47.368 35.1044 47.2202 34.7456 47.2202 34.3233C47.2202 33.9011 47.368 33.5422 47.6635 33.2467C47.9591 32.9511 48.318 32.8033 48.7402 32.8033ZM34.8069 34.1967C37.5091 34.2811 39.7469 34.4078 41.5202 34.5767C42.7869 34.83 44.4335 35.21 46.4602 35.7167L46.8402 36.2233C46.1646 36.4767 45.5735 36.8989 45.0669 37.49C44.898 37.4056 44.6869 37.3633 44.4335 37.3633C43.6735 37.3633 43.0402 37.6378 42.5335 38.1867C42.0269 38.7356 41.7735 39.3689 41.7735 40.0867C41.7735 40.8044 42.0269 41.4589 42.5335 42.05C41.858 42.3033 41.3091 42.7256 40.8869 43.3167L40.3802 43.19C39.6202 43.19 38.9658 43.4644 38.4169 44.0133C37.868 44.5622 37.5935 45.1956 37.5935 45.9133C37.5935 46.6311 37.8891 47.2433 38.4802 47.75C37.7202 48.0878 37.0869 48.5944 36.5802 49.27C36.0735 49.9456 35.7358 50.7478 35.5669 51.6767C35.5669 51.8456 35.6302 51.9933 35.7569 52.12C35.8835 52.2467 36.0313 52.31 36.2002 52.31H48.1069V60.1633C44.9824 58.6433 40.5491 57.8833 34.8069 57.8833V34.1967ZM65.9669 60.7967H51.4002C51.2313 60.7967 51.0835 60.86 50.9569 60.9867C50.8302 61.1133 50.7669 61.2189 50.7669 61.3033V61.9367C50.7669 62.19 50.7035 62.38 50.5769 62.5067C50.4502 62.6333 50.2602 62.6967 50.0069 62.6967H47.4735C47.3046 62.6967 47.1358 62.6333 46.9669 62.5067C46.798 62.38 46.7135 62.19 46.7135 61.9367V61.3033C46.7135 61.2189 46.6502 61.1133 46.5235 60.9867C46.3969 60.86 46.2913 60.7967 46.2069 60.7967H31.5135V36.35H33.6669V58.39C33.6669 58.5589 33.7302 58.7067 33.8569 58.8333C33.9835 58.96 34.1313 59.0233 34.3002 59.0233C40.6335 59.0233 45.3624 59.91 48.4869 61.6833C48.5713 61.7678 48.6558 61.81 48.7402 61.81C48.8246 61.81 48.9091 61.7678 48.9935 61.6833C52.118 59.91 56.8469 59.0233 63.1802 59.0233C63.3491 59.0233 63.4969 58.96 63.6235 58.8333C63.7502 58.7067 63.8135 58.5589 63.8135 58.39V36.35H65.9669V60.7967ZM60.7735 54.3367C60.7735 54.5056 60.7102 54.6533 60.5835 54.78C60.4569 54.9067 60.3091 54.97 60.1402 54.97C56.9313 55.1389 54.2291 55.5611 52.0335 56.2367H51.7802C51.5269 56.2367 51.358 56.1311 51.2735 55.92C51.1891 55.7089 51.1891 55.54 51.2735 55.4133C51.358 55.2867 51.4846 55.1811 51.6535 55.0967C54.018 54.4211 56.8469 53.9989 60.1402 53.83C60.3091 53.83 60.4358 53.8722 60.5202 53.9567C60.6046 54.0411 60.6891 54.1678 60.7735 54.3367ZM46.2069 55.8567C46.1224 56.11 45.9535 56.2367 45.7002 56.2367H45.4469C43.2513 55.5611 40.5491 55.1389 37.3402 54.97C37.1713 54.97 37.0235 54.9067 36.8969 54.78C36.7702 54.6533 36.728 54.5056 36.7702 54.3367C36.8124 54.1678 36.8758 54.0411 36.9602 53.9567C37.0446 53.8722 37.1713 53.83 37.3402 53.83C40.6335 53.9989 43.4624 54.4211 45.8269 55.0967C45.9958 55.1811 46.1224 55.2867 46.2069 55.4133C46.2913 55.54 46.2913 55.6878 46.2069 55.8567Z" fill="#0E2A46"/>
<rect x="0.5" y="0.5" width="96.5" height="96.5" rx="48.25" stroke="#0E2A46" stroke-dasharray="3 2"/>
</svg>