<svg width="39" height="38" viewBox="0 0 39 38" fill="none" xmlns="http://www.w3.org/2000/svg">
<path d="M36.87 6.33309H34.0833V4.93976C34.0833 4.77087 34.02 4.62309 33.8933 4.49643C33.7667 4.36976 33.6189 4.30643 33.45 4.30643C30.6633 4.30643 28.3833 4.43309 26.61 4.68643C25.1745 4.85531 23.5278 5.19309 21.67 5.69976V5.57309C21.67 4.81309 21.4167 4.17976 20.91 3.67309C20.4033 3.16643 19.77 2.91309 19.01 2.91309C18.25 2.91309 17.6167 3.16643 17.11 3.67309C16.6033 4.17976 16.35 4.81309 16.35 5.57309V5.69976C14.4922 5.19309 12.8456 4.85531 11.41 4.68643C9.63667 4.43309 7.35667 4.30643 4.57001 4.30643C4.40112 4.30643 4.25334 4.36976 4.12667 4.49643C4.00001 4.62309 3.93667 4.77087 3.93667 4.93976V6.33309H1.15001C0.981119 6.33309 0.854452 6.39643 0.770008 6.52309C0.685563 6.64976 0.643341 6.79754 0.643341 6.96643V32.5531C0.643341 32.722 0.685563 32.8698 0.770008 32.9964C0.854452 33.1231 0.981119 33.1864 1.15001 33.1864H15.8433C15.8433 33.7775 16.0333 34.242 16.4133 34.5798C16.7933 34.9175 17.2367 35.0864 17.7433 35.0864H20.2767C20.8678 35.0864 21.3322 34.9175 21.67 34.5798C22.0078 34.242 22.1767 33.7775 22.1767 33.1864H36.87C37.0389 33.1864 37.1656 33.1231 37.25 32.9964C37.3345 32.8698 37.3767 32.722 37.3767 32.5531V6.96643C37.3767 6.79754 37.3345 6.64976 37.25 6.52309C37.1656 6.39643 37.0389 6.33309 36.87 6.33309ZM32.9433 5.44643V29.1331C27.2011 29.1331 22.7678 29.8931 19.6433 31.4131V23.5598H31.17C31.4233 23.5598 31.5922 23.4964 31.6767 23.3698C31.7611 23.2431 31.8033 23.0953 31.8033 22.9264C31.7189 21.9975 31.4233 21.1953 30.9167 20.5198C30.41 19.8442 29.7767 19.3375 29.0167 18.9998C29.5233 18.4931 29.7767 17.8809 29.7767 17.1631C29.7767 16.4453 29.5233 15.812 29.0167 15.2631C28.51 14.7142 27.8767 14.4398 27.1167 14.4398L26.61 14.5664C26.1033 13.9753 25.5122 13.5531 24.8367 13.2998C25.4278 12.7086 25.7233 12.0542 25.7233 11.3364C25.7233 10.6186 25.4489 9.98532 24.9 9.43643C24.3511 8.88754 23.6967 8.61309 22.9367 8.61309L22.5567 8.73976C22.1345 8.14865 21.5856 7.72643 20.91 7.47309L21.29 6.96643C23.3167 6.45976 24.9633 6.07976 26.23 5.82643C28.0033 5.65754 30.2411 5.53087 32.9433 5.44643ZM14.7033 21.0264C14.1967 20.0975 13.4789 19.422 12.55 18.9998C12.8878 18.662 13.0989 18.2398 13.1833 17.7331H16.2233C16.3078 18.2398 16.5611 18.662 16.9833 18.9998C15.97 19.422 15.21 20.0975 14.7033 21.0264ZM9.13001 17.0998C9.13001 16.6775 9.27779 16.3398 9.57334 16.0864C9.8689 15.8331 10.2278 15.7064 10.65 15.7064C11.0722 15.7064 11.4311 15.8331 11.7267 16.0864C12.0222 16.3398 12.17 16.6775 12.17 17.0998C12.17 17.522 12.0222 17.8809 11.7267 18.1764C11.4311 18.472 11.0722 18.6198 10.65 18.6198C10.2278 18.6198 9.8689 18.472 9.57334 18.1764C9.27779 17.8809 9.13001 17.522 9.13001 17.0998ZM13.1833 11.3998C13.1833 10.9775 13.3311 10.6186 13.6267 10.3231C13.9222 10.0275 14.2811 9.87976 14.7033 9.87976C15.1256 9.87976 15.4845 10.0275 15.78 10.3231C16.0756 10.6186 16.2233 10.9775 16.2233 11.3998C16.2233 11.822 16.0756 12.1598 15.78 12.4131C15.4845 12.6664 15.1256 12.7931 14.7033 12.7931C14.2811 12.7931 13.9222 12.6664 13.6267 12.4131C13.3311 12.1598 13.1833 11.822 13.1833 11.3998ZM19.01 8.23309C19.9389 8.23309 20.7411 8.52865 21.4167 9.11976C20.8256 9.54198 20.4878 10.0909 20.4033 10.7664H17.3633C17.1945 10.1753 16.8989 9.66865 16.4767 9.24643C17.1522 8.57087 17.9967 8.23309 19.01 8.23309ZM22.9367 21.0264C22.43 20.0975 21.7122 19.422 20.7833 18.9998C21.1211 18.662 21.3745 18.2398 21.5433 17.7331H24.4567C24.6256 18.2398 24.8789 18.662 25.2167 18.9998C24.2033 19.422 23.4433 20.0975 22.9367 21.0264ZM18.8833 18.6198C18.4611 18.6198 18.1022 18.472 17.8067 18.1764C17.5111 17.8809 17.3633 17.522 17.3633 17.0998C17.3633 16.6775 17.5111 16.3398 17.8067 16.0864C18.1022 15.8331 18.4611 15.7064 18.8833 15.7064C19.3056 15.7064 19.6645 15.8331 19.96 16.0864C20.2556 16.3398 20.4033 16.6775 20.4033 17.0998C20.4033 17.522 20.2556 17.8809 19.96 18.1764C19.6645 18.472 19.3056 18.6198 18.8833 18.6198ZM16.6033 13.2998C17.0256 12.8775 17.2789 12.4131 17.3633 11.9064H18.3767V14.4398V14.5664C17.87 13.9753 17.2789 13.5531 16.6033 13.2998ZM20.4033 11.9064C20.4878 12.4131 20.6989 12.8775 21.0367 13.2998C20.53 13.5531 20.0656 13.8909 19.6433 14.3131V11.9064H20.4033ZM27.1167 19.8864C27.8767 19.8864 28.5733 20.1186 29.2067 20.5831C29.84 21.0475 30.2833 21.6175 30.5367 22.2931H23.6967C23.95 21.6175 24.3933 21.0475 25.0267 20.5831C25.66 20.1186 26.3567 19.8864 27.1167 19.8864ZM27.1167 18.6198C26.6945 18.6198 26.3356 18.472 26.04 18.1764C25.7445 17.8809 25.5967 17.522 25.5967 17.0998C25.5967 16.6775 25.7445 16.3398 26.04 16.0864C26.3356 15.8331 26.6945 15.7064 27.1167 15.7064C27.5389 15.7064 27.8978 15.8331 28.1933 16.0864C28.4889 16.3398 28.6367 16.6775 28.6367 17.0998C28.6367 17.522 28.4889 17.8809 28.1933 18.1764C27.8978 18.472 27.5389 18.6198 27.1167 18.6198ZM24.4567 16.5931H21.5433C21.3745 15.9175 21.0367 15.4109 20.53 15.0731C21.2056 14.3975 22.0289 14.0598 23 14.0598C23.9711 14.0598 24.7945 14.3975 25.47 15.0731C24.9633 15.4109 24.6256 15.9175 24.4567 16.5931ZM22.9367 12.7931C22.5145 12.7931 22.1556 12.6664 21.86 12.4131C21.5645 12.1598 21.4167 11.822 21.4167 11.3998C21.4167 10.9775 21.5645 10.6186 21.86 10.3231C22.1556 10.0275 22.5145 9.87976 22.9367 9.87976C23.3589 9.87976 23.7178 10.0275 24.0133 10.3231C24.3089 10.6186 24.4567 10.9775 24.4567 11.3998C24.4567 11.822 24.3089 12.1598 24.0133 12.4131C23.7178 12.6664 23.3589 12.7931 22.9367 12.7931ZM17.2367 15.0731C16.73 15.4109 16.3922 15.9175 16.2233 16.5931H13.1833C13.0989 15.9175 12.8033 15.4109 12.2967 15.0731C12.9722 14.3975 13.7956 14.0598 14.7667 14.0598C15.7378 14.0598 16.5611 14.3975 17.2367 15.0731ZM10.65 19.8864C11.41 19.8864 12.1067 20.1186 12.74 20.5831C13.3733 21.0475 13.8167 21.6175 14.07 22.2931H7.23001C7.48334 21.6175 7.90556 21.0475 8.49667 20.5831C9.08779 20.1186 9.80556 19.8864 10.65 19.8864ZM18.8833 19.8864C19.6433 19.8864 20.34 20.1186 20.9733 20.5831C21.6067 21.0475 22.05 21.6175 22.3033 22.2931H15.4633C15.7167 21.6175 16.1389 21.0475 16.73 20.5831C17.3211 20.1186 18.0389 19.8864 18.8833 19.8864ZM19.01 4.05309C19.4322 4.05309 19.7911 4.20087 20.0867 4.49643C20.3822 4.79198 20.53 5.15087 20.53 5.57309C20.53 5.99532 20.3822 6.3542 20.0867 6.64976C19.7911 6.94531 19.4322 7.09309 19.01 7.09309C18.5878 7.09309 18.2289 6.94531 17.9333 6.64976C17.6378 6.3542 17.49 5.99532 17.49 5.57309C17.49 5.15087 17.6378 4.79198 17.9333 4.49643C18.2289 4.20087 18.5878 4.05309 19.01 4.05309ZM5.07667 5.44643C7.7789 5.53087 10.0167 5.65754 11.79 5.82643C13.0567 6.07976 14.7033 6.45976 16.73 6.96643L17.11 7.47309C16.4345 7.72643 15.8433 8.14865 15.3367 8.73976C15.1678 8.65532 14.9567 8.61309 14.7033 8.61309C13.9433 8.61309 13.31 8.88754 12.8033 9.43643C12.2967 9.98532 12.0433 10.6186 12.0433 11.3364C12.0433 12.0542 12.2967 12.7086 12.8033 13.2998C12.1278 13.5531 11.5789 13.9753 11.1567 14.5664L10.65 14.4398C9.89001 14.4398 9.23556 14.7142 8.68667 15.2631C8.13779 15.812 7.86334 16.4453 7.86334 17.1631C7.86334 17.8809 8.1589 18.4931 8.75001 18.9998C7.99001 19.3375 7.35667 19.8442 6.85001 20.5198C6.34334 21.1953 6.00556 21.9975 5.83667 22.9264C5.83667 23.0953 5.90001 23.2431 6.02667 23.3698C6.15334 23.4964 6.30112 23.5598 6.47001 23.5598H18.3767V31.4131C15.2522 29.8931 10.8189 29.1331 5.07667 29.1331V5.44643ZM36.2367 32.0464H21.67C21.5011 32.0464 21.3533 32.1098 21.2267 32.2364C21.1 32.3631 21.0367 32.4686 21.0367 32.5531V33.1864C21.0367 33.4398 20.9733 33.6298 20.8467 33.7564C20.72 33.8831 20.53 33.9464 20.2767 33.9464H17.7433C17.5745 33.9464 17.4056 33.8831 17.2367 33.7564C17.0678 33.6298 16.9833 33.4398 16.9833 33.1864V32.5531C16.9833 32.4686 16.92 32.3631 16.7933 32.2364C16.6667 32.1098 16.5611 32.0464 16.4767 32.0464H1.78334V7.59976H3.93667V29.6398C3.93667 29.8086 4.00001 29.9564 4.12667 30.0831C4.25334 30.2098 4.40112 30.2731 4.57001 30.2731C10.9033 30.2731 15.6322 31.1598 18.7567 32.9331C18.8411 33.0175 18.9256 33.0598 19.01 33.0598C19.0945 33.0598 19.1789 33.0175 19.2633 32.9331C22.3878 31.1598 27.1167 30.2731 33.45 30.2731C33.6189 30.2731 33.7667 30.2098 33.8933 30.0831C34.02 29.9564 34.0833 29.8086 34.0833 29.6398V7.59976H36.2367V32.0464ZM31.0433 25.5864C31.0433 25.7553 30.98 25.9031 30.8533 26.0298C30.7267 26.1564 30.5789 26.2198 30.41 26.2198C27.2011 26.3886 24.4989 26.8109 22.3033 27.4864H22.05C21.7967 27.4864 21.6278 27.3809 21.5433 27.1698C21.4589 26.9586 21.4589 26.7898 21.5433 26.6631C21.6278 26.5364 21.7545 26.4309 21.9233 26.3464C24.2878 25.6709 27.1167 25.2486 30.41 25.0798C30.5789 25.0798 30.7056 25.122 30.79 25.2064C30.8745 25.2909 30.9589 25.4175 31.0433 25.5864ZM16.4767 27.1064C16.3922 27.3598 16.2233 27.4864 15.97 27.4864H15.7167C13.5211 26.8109 10.8189 26.3886 7.61001 26.2198C7.44112 26.2198 7.29334 26.1564 7.16667 26.0298C7.04001 25.9031 6.99779 25.7553 7.04001 25.5864C7.08223 25.4175 7.14556 25.2909 7.23001 25.2064C7.31445 25.122 7.44112 25.0798 7.61001 25.0798C10.9033 25.2486 13.7322 25.6709 16.0967 26.3464C16.2656 26.4309 16.3922 26.5364 16.4767 26.6631C16.5611 26.7898 16.5611 26.9375 16.4767 27.1064Z" fill="#0E2A46"/>
</svg>
