<svg width="39" height="38" viewBox="0 0 39 38" fill="none" xmlns="http://www.w3.org/2000/svg">
<path d="M31.55 23.94C31.9722 23.4334 32.31 22.8423 32.5633 22.1667C32.8167 21.4911 32.9433 20.8156 32.9433 20.14C32.9433 19.0423 32.5633 18.1134 31.8033 17.3534C31.0433 16.5934 30.1144 16.2134 29.0167 16.2134C27.9189 16.2134 26.99 16.5934 26.23 17.3534C25.47 18.1134 25.09 19.0634 25.09 20.2034C25.09 21.3434 25.3855 22.3778 25.9767 23.3067L26.3567 23.94C25.4278 23.94 24.5833 24.2356 23.8233 24.8267C23.4855 24.7423 23.1478 24.7 22.81 24.7H22.1767C22.5989 24.3623 22.9367 23.94 23.19 23.4334C24.0344 22.0823 24.4567 20.52 24.4567 18.7467C24.4567 17.8178 24.2244 16.9311 23.76 16.0867C23.2955 15.2423 22.6411 14.5667 21.7967 14.06C20.9522 13.5534 20.0233 13.3 19.01 13.3C17.9967 13.3 17.0678 13.5534 16.2233 14.06C15.3789 14.5667 14.7244 15.2423 14.26 16.0867C13.7955 16.9311 13.5633 17.8178 13.5633 18.7467C13.5633 20.52 13.9855 22.0823 14.83 23.4334C15.0833 23.8556 15.4211 24.2778 15.8433 24.7H15.21C14.8722 24.7 14.5344 24.7423 14.1967 24.8267C13.4367 24.2356 12.5922 23.94 11.6633 23.94L12.0433 23.3067C12.6344 22.3778 12.93 21.3434 12.93 20.2034C12.93 19.0634 12.55 18.1134 11.79 17.3534C11.03 16.5934 10.1011 16.2134 9.00333 16.2134C7.90555 16.2134 6.97666 16.5934 6.21666 17.3534C5.45666 18.1134 5.07666 19.0423 5.07666 20.14C5.07666 20.8156 5.20333 21.4911 5.45666 22.1667C5.70999 22.8423 6.04777 23.4334 6.46999 23.94C5.28777 23.94 4.29555 24.32 3.49333 25.08C2.6911 25.84 2.28999 26.7689 2.28999 27.8667V32.4267C2.28999 32.5956 2.33222 32.7434 2.41666 32.87C2.5011 32.9967 2.62777 33.06 2.79666 33.06H9.38333V36.86C9.38333 37.0289 9.44666 37.1556 9.57333 37.24C9.69999 37.3245 9.84777 37.3667 10.0167 37.3667H28.0033C28.1722 37.3667 28.32 37.3245 28.4467 37.24C28.5733 37.1556 28.6367 37.0289 28.6367 36.86V33.06H35.2233C35.3922 33.06 35.5189 32.9967 35.6033 32.87C35.6878 32.7434 35.73 32.5956 35.73 32.4267V27.8667C35.73 26.7689 35.3289 25.84 34.5267 25.08C33.7244 24.32 32.7322 23.94 31.55 23.94ZM26.23 20.14C26.23 19.38 26.5044 18.7256 27.0533 18.1767C27.6022 17.6278 28.2567 17.3534 29.0167 17.3534C29.7767 17.3534 30.4311 17.6278 30.98 18.1767C31.5289 18.7256 31.8033 19.4223 31.8033 20.2667C31.8033 21.1111 31.5922 21.8711 31.17 22.5467C30.6633 23.4756 29.9455 23.94 29.0167 23.94C28.0878 23.94 27.37 23.4756 26.8633 22.5467C26.4411 21.8711 26.23 21.0689 26.23 20.14ZM19.01 14.5667C20.1922 14.5667 21.2055 14.9678 22.05 15.77C22.8944 16.5723 23.3167 17.5645 23.3167 18.7467V18.8734C22.3878 18.7889 21.5855 18.62 20.91 18.3667C20.0655 18.0289 19.1789 17.5223 18.25 16.8467C18.0811 16.6778 17.87 16.6778 17.6167 16.8467L14.7033 18.4934C14.7878 17.3956 15.2522 16.4667 16.0967 15.7067C16.9411 14.9467 17.9122 14.5667 19.01 14.5667ZM15.8433 22.8C15.3367 21.9556 14.9989 20.9845 14.83 19.8867L17.87 17.9867C18.7989 18.6623 19.7278 19.1689 20.6567 19.5067C21.3322 19.76 22.1767 19.9711 23.19 20.14C23.0211 21.1534 22.6833 22.04 22.1767 22.8C21.4167 24.0667 20.3611 24.7 19.01 24.7C17.6589 24.7 16.6033 24.0667 15.8433 22.8ZM6.21666 20.14C6.21666 19.38 6.4911 18.7256 7.03999 18.1767C7.58888 17.6278 8.24333 17.3534 9.00333 17.3534C9.76333 17.3534 10.4178 17.6278 10.9667 18.1767C11.5155 18.7256 11.79 19.4223 11.79 20.2667C11.79 21.1111 11.5789 21.8711 11.1567 22.5467C10.65 23.4756 9.93222 23.94 9.00333 23.94C8.07444 23.94 7.35666 23.4756 6.84999 22.5467C6.42777 21.8711 6.21666 21.0689 6.21666 20.14ZM3.42999 31.92V27.8667C3.42999 27.1067 3.72555 26.4734 4.31666 25.9667C4.90777 25.46 5.62555 25.2067 6.46999 25.2067H11.6633C12.0011 25.2067 12.2967 25.2489 12.55 25.3334C11.6211 25.7556 10.8611 26.41 10.27 27.2967C9.67888 28.1834 9.38333 29.1334 9.38333 30.1467V31.92H3.42999ZM27.4967 36.2267H24.4567V32.5534C24.4567 32.3845 24.3933 32.2367 24.2667 32.11C24.14 31.9834 23.9922 31.92 23.8233 31.92C23.6544 31.92 23.5278 31.9834 23.4433 32.11C23.3589 32.2367 23.3167 32.3845 23.3167 32.5534V36.2267H14.7033V32.5534C14.7033 32.3845 14.6611 32.2367 14.5767 32.11C14.4922 31.9834 14.3655 31.92 14.1967 31.92C14.0278 31.92 13.88 31.9834 13.7533 32.11C13.6267 32.2367 13.5633 32.3845 13.5633 32.5534V36.2267H10.5233V30.1467C10.5233 28.9645 10.9878 27.9511 11.9167 27.1067C12.8455 26.2623 13.9433 25.84 15.21 25.84H22.81C24.0767 25.84 25.1744 26.2623 26.1033 27.1067C27.0322 27.9511 27.4967 28.9645 27.4967 30.1467V36.2267ZM34.59 31.92H28.6367V30.1467C28.6367 29.1334 28.3411 28.1834 27.75 27.2967C27.1589 26.41 26.3989 25.7556 25.47 25.3334C25.7233 25.2489 26.0189 25.2067 26.3567 25.2067H31.55C32.3944 25.2067 33.1122 25.46 33.7033 25.9667C34.2944 26.4734 34.59 27.1067 34.59 27.8667V31.92ZM15.7167 7.7267L15.21 10.8934C15.21 11.1467 15.2944 11.3367 15.4633 11.4634C15.6322 11.59 15.8433 11.6111 16.0967 11.5267L19.01 10.0067L21.9233 11.5267C22.1767 11.6111 22.3878 11.59 22.5567 11.4634C22.7255 11.3367 22.81 11.1467 22.81 10.8934L22.3033 7.7267L24.5833 5.32003C24.7522 5.15115 24.7944 4.96114 24.71 4.75003C24.6255 4.53892 24.4567 4.39114 24.2033 4.3067L21.0367 3.80003L19.5167 0.8867C19.4322 0.717812 19.2633 0.633366 19.01 0.633366C18.7567 0.633366 18.5878 0.717812 18.5033 0.8867L16.9833 3.80003L13.8167 4.3067C13.5633 4.39114 13.3944 4.53892 13.31 4.75003C13.2255 4.96114 13.2678 5.15115 13.4367 5.32003L15.7167 7.7267ZM17.49 4.94003C17.6589 4.85559 17.7855 4.72892 17.87 4.56003L19.01 2.4067L20.15 4.56003C20.2344 4.72892 20.3611 4.85559 20.53 4.94003L22.9367 5.32003L21.29 7.09337C21.1211 7.17781 21.0367 7.3467 21.0367 7.60003L21.4167 9.88003L19.2633 8.8667C19.0944 8.78226 18.9255 8.78226 18.7567 8.8667L16.6033 9.88003L16.9833 7.60003C16.9833 7.3467 16.8989 7.17781 16.73 7.09337L15.0833 5.32003L17.49 4.94003ZM4.69666 8.61337L4.31666 10.8934C4.31666 11.1467 4.42222 11.3367 4.63333 11.4634C4.84444 11.59 5.03444 11.6111 5.20333 11.5267L7.22999 10.5134L9.25666 11.5267C9.42555 11.6111 9.61555 11.59 9.82666 11.4634C10.0378 11.3367 10.1433 11.1467 10.1433 10.8934L9.76333 8.61337L11.2833 7.09337C11.4522 6.92448 11.5155 6.71337 11.4733 6.46003C11.4311 6.2067 11.2833 6.08003 11.03 6.08003L8.74999 5.70003L7.73666 3.67337C7.65222 3.50448 7.48333 3.42003 7.22999 3.42003C6.97666 3.42003 6.80777 3.50448 6.72333 3.67337L5.70999 5.70003L3.42999 6.08003C3.17666 6.08003 3.02888 6.2067 2.98666 6.46003C2.94444 6.71337 3.00777 6.92448 3.17666 7.09337L4.69666 8.61337ZM6.08999 6.84003C6.34333 6.75559 6.51222 6.62892 6.59666 6.46003L7.22999 5.19337L7.86333 6.46003C7.94777 6.62892 8.07444 6.75559 8.24333 6.84003L9.63666 7.09337L8.74999 8.1067C8.5811 8.19114 8.49666 8.31781 8.49666 8.4867L8.74999 9.88003L7.48333 9.37337C7.31444 9.28892 7.14555 9.28892 6.97666 9.37337L5.70999 9.88003L5.96333 8.4867C5.96333 8.31781 5.87888 8.19114 5.70999 8.1067L4.82333 7.09337L6.08999 6.84003ZM28.2567 8.61337L27.8767 10.8934C27.8767 11.1467 27.9822 11.3367 28.1933 11.4634C28.4044 11.59 28.5944 11.6111 28.7633 11.5267L30.79 10.5134L32.8167 11.5267C32.9855 11.6111 33.1755 11.59 33.3867 11.4634C33.5978 11.3367 33.7033 11.1467 33.7033 10.8934L33.3233 8.61337L34.8433 7.09337C35.0122 6.92448 35.0756 6.71337 35.0333 6.46003C34.9911 6.2067 34.8433 6.08003 34.59 6.08003L32.31 5.70003L31.2967 3.67337C31.2122 3.50448 31.0433 3.42003 30.79 3.42003C30.5367 3.42003 30.3678 3.50448 30.2833 3.67337L29.27 5.70003L26.99 6.08003C26.7367 6.08003 26.5889 6.2067 26.5467 6.46003C26.5044 6.71337 26.5678 6.92448 26.7367 7.09337L28.2567 8.61337ZM29.7767 6.84003C29.9455 6.75559 30.0722 6.62892 30.1567 6.46003L30.79 5.19337L31.4233 6.46003C31.5078 6.62892 31.6767 6.75559 31.93 6.84003L33.1967 7.09337L32.31 8.1067C32.1411 8.19114 32.0567 8.31781 32.0567 8.4867L32.31 9.88003L31.0433 9.37337C30.8744 9.28892 30.7055 9.28892 30.5367 9.37337L29.27 9.88003L29.5233 8.4867C29.5233 8.31781 29.4389 8.19114 29.27 8.1067L28.3833 7.09337L29.7767 6.84003Z" fill="#0E2A46"/>
</svg>
