<svg width="98" height="98" viewBox="0 0 98 98" fill="none" xmlns="http://www.w3.org/2000/svg">
<rect x="9.75" y="9.75" width="78" height="78" rx="39" fill="#FC9F0B"/>
<path d="M61.28 52.69C61.7022 52.1834 62.04 51.5923 62.2934 50.9167C62.5467 50.2411 62.6734 49.5656 62.6734 48.89C62.6734 47.7923 62.2934 46.8634 61.5334 46.1034C60.7734 45.3434 59.8445 44.9634 58.7467 44.9634C57.6489 44.9634 56.72 45.3434 55.96 46.1034C55.2 46.8634 54.82 47.8134 54.82 48.9534C54.82 50.0934 55.1156 51.1278 55.7067 52.0567L56.0867 52.69C55.1578 52.69 54.3134 52.9856 53.5534 53.5767C53.2156 53.4923 52.8778 53.45 52.54 53.45H51.9067C52.3289 53.1123 52.6667 52.69 52.92 52.1834C53.7645 50.8323 54.1867 49.27 54.1867 47.4967C54.1867 46.5678 53.9545 45.6811 53.49 44.8367C53.0256 43.9923 52.3711 43.3167 51.5267 42.81C50.6822 42.3034 49.7534 42.05 48.74 42.05C47.7267 42.05 46.7978 42.3034 45.9534 42.81C45.1089 43.3167 44.4545 43.9923 43.99 44.8367C43.5256 45.6811 43.2934 46.5678 43.2934 47.4967C43.2934 49.27 43.7156 50.8323 44.56 52.1834C44.8134 52.6056 45.1511 53.0278 45.5734 53.45H44.94C44.6022 53.45 44.2645 53.4923 43.9267 53.5767C43.1667 52.9856 42.3222 52.69 41.3934 52.69L41.7734 52.0567C42.3645 51.1278 42.66 50.0934 42.66 48.9534C42.66 47.8134 42.28 46.8634 41.52 46.1034C40.76 45.3434 39.8311 44.9634 38.7334 44.9634C37.6356 44.9634 36.7067 45.3434 35.9467 46.1034C35.1867 46.8634 34.8067 47.7923 34.8067 48.89C34.8067 49.5656 34.9334 50.2411 35.1867 50.9167C35.44 51.5923 35.7778 52.1834 36.2 52.69C35.0178 52.69 34.0256 53.07 33.2234 53.83C32.4211 54.59 32.02 55.5189 32.02 56.6167V61.1767C32.02 61.3456 32.0622 61.4934 32.1467 61.62C32.2311 61.7467 32.3578 61.81 32.5267 61.81H39.1134V65.61C39.1134 65.7789 39.1767 65.9056 39.3034 65.99C39.43 66.0745 39.5778 66.1167 39.7467 66.1167H57.7334C57.9022 66.1167 58.05 66.0745 58.1767 65.99C58.3034 65.9056 58.3667 65.7789 58.3667 65.61V61.81H64.9534C65.1222 61.81 65.2489 61.7467 65.3334 61.62C65.4178 61.4934 65.46 61.3456 65.46 61.1767V56.6167C65.46 55.5189 65.0589 54.59 64.2567 53.83C63.4545 53.07 62.4622 52.69 61.28 52.69ZM55.96 48.89C55.96 48.13 56.2345 47.4756 56.7834 46.9267C57.3322 46.3778 57.9867 46.1034 58.7467 46.1034C59.5067 46.1034 60.1611 46.3778 60.71 46.9267C61.2589 47.4756 61.5334 48.1723 61.5334 49.0167C61.5334 49.8611 61.3222 50.6211 60.9 51.2967C60.3934 52.2256 59.6756 52.69 58.7467 52.69C57.8178 52.69 57.1 52.2256 56.5934 51.2967C56.1711 50.6211 55.96 49.8189 55.96 48.89ZM48.74 43.3167C49.9222 43.3167 50.9356 43.7178 51.78 44.52C52.6245 45.3223 53.0467 46.3145 53.0467 47.4967V47.6234C52.1178 47.5389 51.3156 47.37 50.64 47.1167C49.7956 46.7789 48.9089 46.2723 47.98 45.5967C47.8111 45.4278 47.6 45.4278 47.3467 45.5967L44.4334 47.2434C44.5178 46.1456 44.9822 45.2167 45.8267 44.4567C46.6711 43.6967 47.6422 43.3167 48.74 43.3167ZM45.5734 51.55C45.0667 50.7056 44.7289 49.7345 44.56 48.6367L47.6 46.7367C48.5289 47.4123 49.4578 47.9189 50.3867 48.2567C51.0622 48.51 51.9067 48.7211 52.92 48.89C52.7511 49.9034 52.4134 50.79 51.9067 51.55C51.1467 52.8167 50.0911 53.45 48.74 53.45C47.3889 53.45 46.3334 52.8167 45.5734 51.55ZM35.9467 48.89C35.9467 48.13 36.2211 47.4756 36.77 46.9267C37.3189 46.3778 37.9734 46.1034 38.7334 46.1034C39.4934 46.1034 40.1478 46.3778 40.6967 46.9267C41.2456 47.4756 41.52 48.1723 41.52 49.0167C41.52 49.8611 41.3089 50.6211 40.8867 51.2967C40.38 52.2256 39.6622 52.69 38.7334 52.69C37.8045 52.69 37.0867 52.2256 36.58 51.2967C36.1578 50.6211 35.9467 49.8189 35.9467 48.89ZM33.16 60.67V56.6167C33.16 55.8567 33.4556 55.2234 34.0467 54.7167C34.6378 54.21 35.3556 53.9567 36.2 53.9567H41.3934C41.7311 53.9567 42.0267 53.9989 42.28 54.0834C41.3511 54.5056 40.5911 55.16 40 56.0467C39.4089 56.9334 39.1134 57.8834 39.1134 58.8967V60.67H33.16ZM57.2267 64.9767H54.1867V61.3034C54.1867 61.1345 54.1234 60.9867 53.9967 60.86C53.87 60.7334 53.7222 60.67 53.5534 60.67C53.3845 60.67 53.2578 60.7334 53.1734 60.86C53.0889 60.9867 53.0467 61.1345 53.0467 61.3034V64.9767H44.4334V61.3034C44.4334 61.1345 44.3911 60.9867 44.3067 60.86C44.2222 60.7334 44.0956 60.67 43.9267 60.67C43.7578 60.67 43.61 60.7334 43.4834 60.86C43.3567 60.9867 43.2934 61.1345 43.2934 61.3034V64.9767H40.2534V58.8967C40.2534 57.7145 40.7178 56.7011 41.6467 55.8567C42.5756 55.0123 43.6734 54.59 44.94 54.59H52.54C53.8067 54.59 54.9045 55.0123 55.8334 55.8567C56.7622 56.7011 57.2267 57.7145 57.2267 58.8967V64.9767ZM64.32 60.67H58.3667V58.8967C58.3667 57.8834 58.0711 56.9334 57.48 56.0467C56.8889 55.16 56.1289 54.5056 55.2 54.0834C55.4534 53.9989 55.7489 53.9567 56.0867 53.9567H61.28C62.1245 53.9567 62.8422 54.21 63.4334 54.7167C64.0245 55.2234 64.32 55.8567 64.32 56.6167V60.67ZM45.4467 36.4767L44.94 39.6434C44.94 39.8967 45.0245 40.0867 45.1934 40.2134C45.3622 40.34 45.5734 40.3611 45.8267 40.2767L48.74 38.7567L51.6534 40.2767C51.9067 40.3611 52.1178 40.34 52.2867 40.2134C52.4556 40.0867 52.54 39.8967 52.54 39.6434L52.0334 36.4767L54.3134 34.07C54.4822 33.9011 54.5245 33.7111 54.44 33.5C54.3556 33.2889 54.1867 33.1411 53.9334 33.0567L50.7667 32.55L49.2467 29.6367C49.1622 29.4678 48.9934 29.3834 48.74 29.3834C48.4867 29.3834 48.3178 29.4678 48.2334 29.6367L46.7134 32.55L43.5467 33.0567C43.2934 33.1411 43.1245 33.2889 43.04 33.5C42.9556 33.7111 42.9978 33.9011 43.1667 34.07L45.4467 36.4767ZM47.22 33.69C47.3889 33.6056 47.5156 33.4789 47.6 33.31L48.74 31.1567L49.88 33.31C49.9645 33.4789 50.0911 33.6056 50.26 33.69L52.6667 34.07L51.02 35.8434C50.8511 35.9278 50.7667 36.0967 50.7667 36.35L51.1467 38.63L48.9934 37.6167C48.8245 37.5323 48.6556 37.5323 48.4867 37.6167L46.3334 38.63L46.7134 36.35C46.7134 36.0967 46.6289 35.9278 46.46 35.8434L44.8134 34.07L47.22 33.69ZM34.4267 37.3634L34.0467 39.6434C34.0467 39.8967 34.1522 40.0867 34.3634 40.2134C34.5745 40.34 34.7645 40.3611 34.9334 40.2767L36.96 39.2634L38.9867 40.2767C39.1556 40.3611 39.3456 40.34 39.5567 40.2134C39.7678 40.0867 39.8734 39.8967 39.8734 39.6434L39.4934 37.3634L41.0134 35.8434C41.1822 35.6745 41.2456 35.4634 41.2034 35.21C41.1611 34.9567 41.0134 34.83 40.76 34.83L38.48 34.45L37.4667 32.4234C37.3822 32.2545 37.2134 32.17 36.96 32.17C36.7067 32.17 36.5378 32.2545 36.4534 32.4234L35.44 34.45L33.16 34.83C32.9067 34.83 32.7589 34.9567 32.7167 35.21C32.6745 35.4634 32.7378 35.6745 32.9067 35.8434L34.4267 37.3634ZM35.82 35.59C36.0734 35.5056 36.2422 35.3789 36.3267 35.21L36.96 33.9434L37.5934 35.21C37.6778 35.3789 37.8045 35.5056 37.9734 35.59L39.3667 35.8434L38.48 36.8567C38.3111 36.9411 38.2267 37.0678 38.2267 37.2367L38.48 38.63L37.2134 38.1234C37.0445 38.0389 36.8756 38.0389 36.7067 38.1234L35.44 38.63L35.6934 37.2367C35.6934 37.0678 35.6089 36.9411 35.44 36.8567L34.5534 35.8434L35.82 35.59ZM57.9867 37.3634L57.6067 39.6434C57.6067 39.8967 57.7122 40.0867 57.9234 40.2134C58.1345 40.34 58.3245 40.3611 58.4934 40.2767L60.52 39.2634L62.5467 40.2767C62.7156 40.3611 62.9056 40.34 63.1167 40.2134C63.3278 40.0867 63.4334 39.8967 63.4334 39.6434L63.0534 37.3634L64.5734 35.8434C64.7422 35.6745 64.8056 35.4634 64.7634 35.21C64.7211 34.9567 64.5734 34.83 64.32 34.83L62.04 34.45L61.0267 32.4234C60.9422 32.2545 60.7734 32.17 60.52 32.17C60.2667 32.17 60.0978 32.2545 60.0134 32.4234L59 34.45L56.72 34.83C56.4667 34.83 56.3189 34.9567 56.2767 35.21C56.2345 35.4634 56.2978 35.6745 56.4667 35.8434L57.9867 37.3634ZM59.5067 35.59C59.6756 35.5056 59.8022 35.3789 59.8867 35.21L60.52 33.9434L61.1534 35.21C61.2378 35.3789 61.4067 35.5056 61.66 35.59L62.9267 35.8434L62.04 36.8567C61.8711 36.9411 61.7867 37.0678 61.7867 37.2367L62.04 38.63L60.7734 38.1234C60.6045 38.0389 60.4356 38.0389 60.2667 38.1234L59 38.63L59.2534 37.2367C59.2534 37.0678 59.1689 36.9411 59 36.8567L58.1134 35.8434L59.5067 35.59Z" fill="#0E2A46"/>
<rect x="0.5" y="0.5" width="96.5" height="96.5" rx="48.25" stroke="#0E2A46" stroke-dasharray="3 2"/>
</svg>