<svg width="70" height="70" viewBox="0 0 70 70" fill="none" xmlns="http://www.w3.org/2000/svg">
<rect width="70" height="70" rx="35" fill="white" fill-opacity="0.05"/>
<rect x="0.5" y="0.5" width="69" height="69" rx="34.5" stroke="#F4F4F4" stroke-opacity="0.5"/>
<path d="M47.1117 31.4512C47.2094 31.3535 47.307 31.3372 47.4047 31.4023C47.5349 31.4674 47.6 31.5651 47.6 31.6953V41.6562C47.6 42.3073 47.3721 42.8607 46.9164 43.3164C46.4607 43.7721 45.9073 44 45.2563 44H24.9438C24.2927 44 23.7393 43.7721 23.2836 43.3164C22.8279 42.8607 22.6 42.3073 22.6 41.6562V31.6953C22.6 31.5651 22.6488 31.4837 22.7465 31.4512C22.8767 31.3861 22.9906 31.3861 23.0883 31.4512C24.1625 32.265 26.669 34.1042 30.6078 36.9688C30.6729 37.0339 30.8845 37.2129 31.2426 37.5059C31.6332 37.7988 31.9424 38.0267 32.1703 38.1895C32.3982 38.3197 32.6911 38.4987 33.0492 38.7266C33.4073 38.9219 33.7491 39.0684 34.0746 39.166C34.4327 39.2637 34.7745 39.3125 35.1 39.3125C35.393 39.3125 35.6859 39.2799 35.9789 39.2148C36.2719 39.1172 36.5486 39.0195 36.809 38.9219C37.0694 38.7917 37.3461 38.6289 37.6391 38.4336C37.932 38.2383 38.1762 38.0755 38.3715 37.9453C38.5668 37.7826 38.7947 37.6035 39.0551 37.4082C39.3155 37.2129 39.4945 37.0664 39.5922 36.9688C43.4333 34.2018 45.9398 32.3626 47.1117 31.4512ZM35.1 37.75C34.8396 37.75 34.5141 37.6686 34.1234 37.5059C33.7654 37.3105 33.4724 37.1478 33.2445 37.0176C33.0167 36.8548 32.6749 36.6107 32.2191 36.2852C31.796 35.9271 31.5681 35.748 31.5355 35.748C27.5642 32.8509 24.7322 30.7513 23.0395 29.4492C22.7465 29.2214 22.6 28.9121 22.6 28.5215V27.5938C22.6 26.9427 22.8279 26.3893 23.2836 25.9336C23.7393 25.4779 24.2927 25.25 24.9438 25.25H45.2563C45.9073 25.25 46.4607 25.4779 46.9164 25.9336C47.3721 26.3893 47.6 26.9427 47.6 27.5938V28.5215C47.6 28.9121 47.4535 29.2214 47.1605 29.4492C45.5655 30.6862 42.7335 32.7858 38.6645 35.748C38.6319 35.748 38.3878 35.9271 37.932 36.2852C37.5089 36.6107 37.1833 36.8548 36.9555 37.0176C36.7276 37.1478 36.4184 37.3105 36.0277 37.5059C35.6697 37.6686 35.3604 37.75 35.1 37.75Z" fill="white"/>
</svg>
