<svg width="70" height="70" viewBox="0 0 70 70" fill="none" xmlns="http://www.w3.org/2000/svg">
<rect width="70" height="70" rx="35" fill="white" fill-opacity="0.05"/>
<rect x="0.5" y="0.5" width="69" height="69" rx="34.5" stroke="#F4F4F4" stroke-opacity="0.5"/>
<path d="M46.3572 46.0209C46.2378 46.6416 45.8689 46.9573 45.2505 46.9681C39.0015 47.0772 33.6251 44.9572 29.1215 40.608C24.6178 36.2589 22.3114 30.9598 22.2023 24.7107C22.1915 24.0923 22.4942 23.7126 23.1103 23.5716L28.1672 22.3113C28.7828 22.1378 29.2261 22.358 29.4973 22.9718L31.9361 28.3988C32.1731 28.9156 32.0671 29.3732 31.6183 29.7718L28.7308 32.2151C29.6431 34.1201 30.8606 35.7918 32.3833 37.2303C33.9066 38.7013 35.6198 39.8597 37.5229 40.7055L39.9128 37.7337C40.2628 37.2718 40.7165 37.1499 41.2738 37.3681L46.7826 39.616C47.373 39.8662 47.5922 40.3019 47.4403 40.9231L46.3572 46.0209Z" fill="white"/>
</svg>
