<svg width="98" height="98" viewBox="0 0 98 98" fill="none" xmlns="http://www.w3.org/2000/svg">
<rect x="9.75" y="9.75" width="78" height="78" rx="39" fill="#FC9F0B"/>
<path d="M66.9799 49.2699L61.7866 40.1499C61.6177 39.8966 61.4277 39.7488 61.2166 39.7066C61.0055 39.6644 60.8155 39.6855 60.6466 39.7699L58.7466 40.9099V33.8166L54.9466 29.5099L54.6933 29.3833H39.8733C39.5355 29.3833 39.2611 29.4888 39.0499 29.6999C38.8388 29.911 38.7333 30.1432 38.7333 30.3966V42.1766L36.8333 41.0366C36.6644 40.9521 36.4744 40.931 36.2633 40.9733C36.0522 41.0155 35.8622 41.121 35.6933 41.2899L30.4999 50.5366C30.3311 50.7055 30.2888 50.9166 30.3733 51.1699C30.4577 51.4233 30.5844 51.5921 30.7533 51.6766L35.0599 54.2099C35.7355 54.801 36.3266 55.4766 36.8333 56.2366L35.4399 58.7699C35.1866 59.1921 35.0811 59.6566 35.1233 60.1633C35.1655 60.6699 35.3555 61.0921 35.6933 61.4299C36.0311 61.7677 36.4322 61.9788 36.8966 62.0633C37.3611 62.1477 37.8466 62.1055 38.3533 61.9366C38.5222 62.5277 38.9233 62.971 39.5566 63.2666C40.1899 63.5621 40.8022 63.541 41.3933 63.2033C41.5622 63.7944 41.9211 64.2166 42.4699 64.4699C43.0188 64.7233 43.5466 64.8077 44.0533 64.7233C44.3066 64.6388 44.5599 64.5121 44.8133 64.3433C44.9822 64.7655 45.2566 65.1033 45.6366 65.3566C46.0166 65.6099 46.4177 65.7366 46.8399 65.7366C47.6844 65.7366 48.3177 65.3566 48.7399 64.5966L50.7666 65.8633C51.1888 66.1166 51.6533 66.2221 52.1599 66.1799C52.6666 66.1377 53.1311 65.9477 53.5533 65.6099C53.9755 65.2721 54.2711 64.871 54.4399 64.4066C54.6088 63.9421 54.6088 63.4566 54.4399 62.9499V62.6966H54.6933C55.3688 62.5277 55.8755 62.1266 56.2133 61.4933C56.5511 60.8599 56.6355 60.2055 56.4666 59.5299L56.3399 59.4033C57.0999 59.2344 57.6911 58.8121 58.1133 58.1366C58.5355 57.461 58.6199 56.7433 58.3666 55.9833C59.1266 55.8144 59.6755 55.3921 60.0133 54.7166L60.2666 54.4633C60.5199 54.2944 60.8577 54.0199 61.2799 53.6399C61.7022 53.2599 61.9555 53.0699 62.0399 53.0699C62.1244 53.0699 62.2088 53.0277 62.2933 52.9433L66.7266 50.4099C66.8955 50.3255 67.0222 50.1777 67.1066 49.9666C67.1911 49.7555 67.1488 49.5233 66.9799 49.2699ZM55.1999 31.4099L56.8466 33.1833H55.1999V31.4099ZM39.8733 30.5233H53.9333V33.8166C53.9333 33.9855 53.9966 34.1333 54.1233 34.2599C54.2499 34.3866 54.3977 34.4499 54.5666 34.4499H57.6066V41.5433L56.3399 42.3033C55.0733 42.2188 53.7222 42.3033 52.2866 42.5566C50.6822 42.7255 49.3733 43.0633 48.3599 43.5699L47.7266 43.8233C47.3888 43.9077 47.0933 44.0344 46.8399 44.2033C44.7288 43.4433 42.8288 43.1899 41.1399 43.4433L39.8733 42.8099V30.5233ZM35.1866 52.8166L31.6399 50.7899L36.5799 42.3033L40.1266 44.3299L35.1866 52.8166ZM38.4799 60.0366L38.2266 60.4166C38.1422 60.6699 37.9522 60.8388 37.6566 60.9233C37.3611 61.0077 37.0866 60.9655 36.8333 60.7966C36.5799 60.6277 36.4111 60.4166 36.3266 60.1633C36.2422 59.9099 36.2844 59.6566 36.4533 59.4033L38.6066 55.6033C38.6911 55.3499 38.8811 55.181 39.1766 55.0966C39.4722 55.0121 39.7466 55.0544 39.9999 55.2233C40.2533 55.3921 40.4222 55.6244 40.5066 55.9199C40.5911 56.2155 40.5488 56.4899 40.3799 56.7433L38.4799 60.0366ZM41.5199 61.4299L41.3933 61.6833C41.2244 61.9366 40.9922 62.1055 40.6966 62.1899C40.4011 62.2744 40.1266 62.2533 39.8733 62.1266C39.6199 61.9999 39.4511 61.7888 39.3666 61.4933C39.2822 61.1977 39.3244 60.9233 39.4933 60.6699L41.3933 57.2499C41.5622 56.9966 41.7944 56.8488 42.0899 56.8066C42.3855 56.7644 42.6599 56.8066 42.9133 56.9333C43.1666 57.0599 43.3355 57.271 43.4199 57.5666C43.5044 57.8621 43.4622 58.1366 43.2933 58.3899L41.5199 61.4299ZM44.4333 63.0766C44.2644 63.3299 44.0533 63.4988 43.7999 63.5833C43.5466 63.6677 43.2722 63.6255 42.9766 63.4566C42.6811 63.2877 42.5122 63.0555 42.4699 62.7599C42.4277 62.4644 42.4488 62.1899 42.5333 61.9366L44.3066 59.0233C44.4755 58.7699 44.7077 58.601 45.0033 58.5166C45.2988 58.4321 45.5733 58.4533 45.8266 58.5799C46.0799 58.7066 46.2277 58.9177 46.2699 59.2133C46.3122 59.5088 46.2911 59.7833 46.2066 60.0366L44.8133 62.3166L44.4333 63.0766ZM46.3333 64.3433C46.0799 64.1744 45.9111 63.9633 45.8266 63.7099C45.7422 63.4566 45.7422 63.2033 45.8266 62.9499L47.2199 60.6699C47.3888 60.4166 47.5999 60.2477 47.8533 60.1633C48.1066 60.0788 48.3599 60.0999 48.6133 60.2266C48.8666 60.3533 49.0355 60.5644 49.1199 60.8599C49.2044 61.1555 49.1622 61.4299 48.9933 61.6833L47.7266 63.9633C47.5577 64.2166 47.3466 64.3855 47.0933 64.4699C46.8399 64.5544 46.5866 64.5121 46.3333 64.3433ZM53.1733 64.3433C53.0044 64.5966 52.7299 64.7866 52.3499 64.9133C51.9699 65.0399 51.6533 65.0188 51.3999 64.8499L49.3733 63.5833L50.1333 62.3166C50.3022 61.8944 50.3866 61.4721 50.3866 61.0499L52.6666 62.4433C53.0044 62.6121 53.2155 62.8866 53.2999 63.2666C53.3844 63.6466 53.3422 64.0055 53.1733 64.3433ZM58.9999 54.2099C58.8311 54.5477 58.5777 54.7588 58.2399 54.8433C57.9022 54.9277 57.5644 54.8855 57.2266 54.7166L52.2866 51.8033C52.0333 51.7188 51.8222 51.7188 51.6533 51.8033C51.4844 51.8877 51.3999 52.0566 51.3999 52.3099C51.3999 52.5633 51.4844 52.7321 51.6533 52.8166L56.5933 55.7299C56.9311 55.8988 57.1422 56.1521 57.2266 56.4899C57.3111 56.8277 57.2688 57.1655 57.0999 57.5033C56.9311 57.841 56.6566 58.0521 56.2766 58.1366C55.8966 58.221 55.5377 58.1788 55.1999 58.0099L51.3999 55.8566C51.2311 55.7721 51.0411 55.7721 50.8299 55.8566C50.6188 55.941 50.5133 56.1099 50.5133 56.3633C50.5133 56.6166 50.6399 56.7855 50.8933 56.8699L54.6933 59.0233C54.9466 59.2766 55.1366 59.5721 55.2633 59.9099C55.3899 60.2477 55.3477 60.5855 55.1366 60.9233C54.9255 61.261 54.6511 61.4721 54.3133 61.5566C53.9755 61.641 53.6377 61.5988 53.2999 61.4299L50.7666 59.9099C50.5133 59.8255 50.2599 59.8677 50.0066 60.0366C49.7533 59.6144 49.3944 59.2977 48.9299 59.0866C48.4655 58.8755 47.9799 58.8544 47.4733 59.0233V58.8966C47.3044 58.3055 46.9455 57.8621 46.3966 57.5666C45.8477 57.271 45.2777 57.2077 44.6866 57.3766H44.5599V57.2499C44.3911 56.6588 44.0322 56.2155 43.4833 55.9199C42.9344 55.6244 42.3644 55.5188 41.7733 55.6033L41.6466 55.7299C41.5622 55.2233 41.3511 54.8221 41.0133 54.5266C40.6755 54.231 40.2744 54.041 39.8099 53.9566C39.3455 53.8721 38.9022 53.9355 38.4799 54.1466C38.0577 54.3577 37.7199 54.6744 37.4666 55.0966C37.1288 54.5055 36.7066 53.9988 36.1999 53.5766L41.3933 44.5833C42.7444 44.4144 44.3066 44.6255 46.0799 45.2166L45.0666 48.8899C44.8977 49.3966 44.8555 49.9033 44.9399 50.4099C45.0244 50.9166 45.2355 51.4021 45.5733 51.8666C45.9111 52.331 46.2488 52.5633 46.5866 52.5633C46.9244 52.5633 47.2622 52.3099 47.5999 51.8033L47.7266 51.6766C48.2333 51.001 48.6555 50.2833 48.9933 49.5233C49.5844 48.5944 49.9644 48.0877 50.1333 48.0033L50.8933 47.8766L58.4933 52.3099C58.8311 52.4788 59.0633 52.7533 59.1899 53.1333C59.3166 53.5133 59.2533 53.8721 58.9999 54.2099ZM60.3933 52.9433C60.1399 52.1833 59.7177 51.6344 59.1266 51.2966L51.2733 46.7366C51.1044 46.6521 50.9355 46.6099 50.7666 46.6099L49.8799 46.8633C49.5422 46.9477 49.2466 47.1588 48.9933 47.4966C48.7399 47.8344 48.4022 48.341 47.9799 49.0166C47.6422 49.6921 47.2199 50.3677 46.7133 51.0433L46.5866 51.2966C46.3333 50.8744 46.1855 50.5155 46.1433 50.2199C46.1011 49.9244 46.1222 49.6077 46.2066 49.2699L47.0933 45.8499C47.1777 45.681 47.2622 45.5121 47.3466 45.3433H47.4733C47.6422 45.1744 47.8111 45.0477 47.9799 44.9633L48.8666 44.7099C49.7955 44.2033 51.0199 43.8655 52.5399 43.6966C53.8066 43.5277 55.0311 43.4433 56.2133 43.4433L61.1533 52.1833L60.3933 52.9433ZM62.2933 51.6766L57.3533 43.0633L60.8999 41.0366L65.8399 49.6499L62.2933 51.6766ZM45.3199 40.4033C45.4888 40.4033 45.6155 40.3399 45.6999 40.2133C45.7844 40.0866 45.8266 39.9388 45.8266 39.7699V35.8433C45.8266 35.6744 45.7844 35.5266 45.6999 35.3999C45.6155 35.2733 45.4888 35.2099 45.3199 35.2099H41.2666C41.0977 35.2099 40.9711 35.2733 40.8866 35.3999C40.8022 35.5266 40.7599 35.6744 40.7599 35.8433V39.7699C40.7599 39.9388 40.8022 40.0866 40.8866 40.2133C40.9711 40.3399 41.0977 40.4033 41.2666 40.4033H45.3199ZM41.8999 36.3499H44.6866V39.1366H41.8999V36.3499ZM44.4333 37.6166L43.5466 38.7566C43.3777 38.841 43.2088 38.8833 43.0399 38.8833C42.8711 38.8833 42.7444 38.841 42.6599 38.7566L42.1533 38.2499C42.0688 38.1655 42.0266 38.0388 42.0266 37.8699C42.0266 37.701 42.0899 37.5533 42.2166 37.4266C42.3433 37.2999 42.4911 37.2366 42.6599 37.2366C42.8288 37.2366 42.9555 37.2788 43.0399 37.3633V37.4899L43.5466 36.8566C43.7155 36.6877 43.9055 36.6244 44.1166 36.6666C44.3277 36.7088 44.4755 36.8355 44.5599 37.0466C44.6444 37.2577 44.6022 37.4477 44.4333 37.6166ZM47.5999 40.0233C47.5999 39.8544 47.6633 39.7066 47.7899 39.5799C47.9166 39.4533 48.0644 39.3899 48.2333 39.3899H56.2133C56.3822 39.3899 56.5088 39.4533 56.5933 39.5799C56.6777 39.7066 56.7199 39.8544 56.7199 40.0233C56.7199 40.1921 56.6777 40.3399 56.5933 40.4666C56.5088 40.5933 56.3822 40.6566 56.2133 40.6566H48.2333C48.0644 40.6566 47.9166 40.5933 47.7899 40.4666C47.6633 40.3399 47.5999 40.1921 47.5999 40.0233ZM47.5999 35.8433C47.5999 35.6744 47.6633 35.5266 47.7899 35.3999C47.9166 35.2733 48.0644 35.2099 48.2333 35.2099H51.9066C52.0755 35.2099 52.2233 35.2733 52.3499 35.3999C52.4766 35.5266 52.5399 35.6744 52.5399 35.8433C52.5399 36.0121 52.4766 36.1388 52.3499 36.2233C52.2233 36.3077 52.0755 36.3499 51.9066 36.3499H48.2333C48.0644 36.3499 47.9166 36.3077 47.7899 36.2233C47.6633 36.1388 47.5999 36.0121 47.5999 35.8433ZM47.5999 37.8699C47.5999 37.701 47.6633 37.5744 47.7899 37.4899C47.9166 37.4055 48.0644 37.3633 48.2333 37.3633H53.4266C53.5955 37.3633 53.7433 37.4055 53.8699 37.4899C53.9966 37.5744 54.0599 37.701 54.0599 37.8699C54.0599 38.0388 53.9966 38.1866 53.8699 38.3133C53.7433 38.4399 53.5955 38.5033 53.4266 38.5033H48.2333C48.0644 38.5033 47.9166 38.4399 47.7899 38.3133C47.6633 38.1866 47.5999 38.0388 47.5999 37.8699Z" fill="#0E2A46"/>
<rect x="0.5" y="0.5" width="96.5" height="96.5" rx="48.25" stroke="#0E2A46" stroke-dasharray="3 2"/>
</svg>