<svg width="39" height="38" viewBox="0 0 39 38" fill="none" xmlns="http://www.w3.org/2000/svg">
<path d="M37.25 20.5199L32.0567 11.3999C31.8878 11.1466 31.6978 10.9988 31.4867 10.9566C31.2755 10.9144 31.0855 10.9355 30.9167 11.0199L29.0167 12.1599V5.06659L25.2167 0.759914L24.9633 0.633251H10.1433C9.80555 0.633251 9.53111 0.738804 9.31999 0.949917C9.10888 1.16103 9.00333 1.39325 9.00333 1.64658V13.4266L7.10333 12.2866C6.93444 12.2021 6.74444 12.181 6.53333 12.2233C6.32222 12.2655 6.13222 12.371 5.96333 12.5399L0.769994 21.7866C0.601105 21.9555 0.558883 22.1666 0.643327 22.4199C0.727771 22.6733 0.854438 22.8421 1.02333 22.9266L5.32999 25.4599C6.00555 26.051 6.59666 26.7266 7.10333 27.4866L5.70999 30.0199C5.45666 30.4421 5.3511 30.9066 5.39333 31.4133C5.43555 31.9199 5.62555 32.3421 5.96333 32.6799C6.3011 33.0177 6.70222 33.2288 7.16666 33.3133C7.6311 33.3977 8.11666 33.3555 8.62333 33.1866C8.79222 33.7777 9.19333 34.221 9.82666 34.5166C10.46 34.8121 11.0722 34.791 11.6633 34.4533C11.8322 35.0444 12.1911 35.4666 12.74 35.7199C13.2889 35.9733 13.8167 36.0577 14.3233 35.9733C14.5767 35.8888 14.83 35.7621 15.0833 35.5933C15.2522 36.0155 15.5267 36.3533 15.9067 36.6066C16.2867 36.8599 16.6878 36.9866 17.11 36.9866C17.9544 36.9866 18.5878 36.6066 19.01 35.8466L21.0367 37.1133C21.4589 37.3666 21.9233 37.4721 22.43 37.4299C22.9367 37.3877 23.4011 37.1977 23.8233 36.8599C24.2455 36.5221 24.5411 36.121 24.71 35.6566C24.8789 35.1921 24.8789 34.7066 24.71 34.1999V33.9466H24.9633C25.6389 33.7777 26.1455 33.3766 26.4833 32.7433C26.8211 32.1099 26.9055 31.4555 26.7367 30.7799L26.61 30.6533C27.37 30.4844 27.9611 30.0621 28.3833 29.3866C28.8055 28.711 28.89 27.9933 28.6367 27.2333C29.3967 27.0644 29.9455 26.6421 30.2833 25.9666L30.5367 25.7133C30.79 25.5444 31.1278 25.2699 31.55 24.8899C31.9722 24.5099 32.2255 24.3199 32.31 24.3199C32.3944 24.3199 32.4789 24.2777 32.5633 24.1933L36.9967 21.6599C37.1656 21.5755 37.2922 21.4277 37.3767 21.2166C37.4611 21.0055 37.4189 20.7733 37.25 20.5199ZM25.47 2.65992L27.1167 4.43325H25.47V2.65992ZM10.1433 1.77325H24.2033V5.06659C24.2033 5.23547 24.2667 5.38325 24.3933 5.50992C24.52 5.63659 24.6678 5.69992 24.8367 5.69992H27.8767V12.7933L26.61 13.5533C25.3433 13.4688 23.9922 13.5533 22.5567 13.8066C20.9522 13.9755 19.6433 14.3133 18.63 14.8199L17.9967 15.0733C17.6589 15.1577 17.3633 15.2844 17.11 15.4533C14.9989 14.6933 13.0989 14.4399 11.41 14.6933L10.1433 14.0599V1.77325ZM5.45666 24.0666L1.90999 22.0399L6.84999 13.5533L10.3967 15.5799L5.45666 24.0666ZM8.74999 31.2866L8.49666 31.6666C8.41222 31.9199 8.22222 32.0888 7.92666 32.1733C7.6311 32.2577 7.35666 32.2155 7.10333 32.0466C6.84999 31.8777 6.6811 31.6666 6.59666 31.4133C6.51222 31.1599 6.55444 30.9066 6.72333 30.6533L8.87666 26.8533C8.96111 26.5999 9.1511 26.431 9.44666 26.3466C9.74222 26.2621 10.0167 26.3044 10.27 26.4733C10.5233 26.6421 10.6922 26.8744 10.7767 27.1699C10.8611 27.4655 10.8189 27.7399 10.65 27.9933L8.74999 31.2866ZM11.79 32.6799L11.6633 32.9333C11.4944 33.1866 11.2622 33.3555 10.9667 33.4399C10.6711 33.5244 10.3967 33.5033 10.1433 33.3766C9.88999 33.2499 9.7211 33.0388 9.63666 32.7433C9.55222 32.4477 9.59444 32.1733 9.76333 31.9199L11.6633 28.4999C11.8322 28.2466 12.0644 28.0988 12.36 28.0566C12.6555 28.0144 12.93 28.0566 13.1833 28.1833C13.4367 28.3099 13.6055 28.521 13.69 28.8166C13.7744 29.1121 13.7322 29.3866 13.5633 29.6399L11.79 32.6799ZM14.7033 34.3266C14.5344 34.5799 14.3233 34.7488 14.07 34.8333C13.8167 34.9177 13.5422 34.8755 13.2467 34.7066C12.9511 34.5377 12.7822 34.3055 12.74 34.0099C12.6978 33.7144 12.7189 33.4399 12.8033 33.1866L14.5767 30.2733C14.7455 30.0199 14.9778 29.851 15.2733 29.7666C15.5689 29.6821 15.8433 29.7033 16.0967 29.8299C16.35 29.9566 16.4978 30.1677 16.54 30.4633C16.5822 30.7588 16.5611 31.0333 16.4767 31.2866L15.0833 33.5666L14.7033 34.3266ZM16.6033 35.5933C16.35 35.4244 16.1811 35.2133 16.0967 34.9599C16.0122 34.7066 16.0122 34.4533 16.0967 34.1999L17.49 31.9199C17.6589 31.6666 17.87 31.4977 18.1233 31.4133C18.3767 31.3288 18.63 31.3499 18.8833 31.4766C19.1367 31.6033 19.3055 31.8144 19.39 32.1099C19.4744 32.4055 19.4322 32.6799 19.2633 32.9333L17.9967 35.2133C17.8278 35.4666 17.6167 35.6355 17.3633 35.7199C17.11 35.8044 16.8567 35.7621 16.6033 35.5933ZM23.4433 35.5933C23.2744 35.8466 23 36.0366 22.62 36.1633C22.24 36.2899 21.9233 36.2688 21.67 36.0999L19.6433 34.8333L20.4033 33.5666C20.5722 33.1444 20.6567 32.7221 20.6567 32.2999L22.9367 33.6933C23.2744 33.8621 23.4855 34.1366 23.57 34.5166C23.6544 34.8966 23.6122 35.2555 23.4433 35.5933ZM29.27 25.4599C29.1011 25.7977 28.8478 26.0088 28.51 26.0933C28.1722 26.1777 27.8344 26.1355 27.4967 25.9666L22.5567 23.0533C22.3033 22.9688 22.0922 22.9688 21.9233 23.0533C21.7544 23.1377 21.67 23.3066 21.67 23.5599C21.67 23.8133 21.7544 23.9821 21.9233 24.0666L26.8633 26.9799C27.2011 27.1488 27.4122 27.4021 27.4967 27.7399C27.5811 28.0777 27.5389 28.4155 27.37 28.7533C27.2011 29.091 26.9267 29.3021 26.5467 29.3866C26.1667 29.471 25.8078 29.4288 25.47 29.2599L21.67 27.1066C21.5011 27.0221 21.3111 27.0221 21.1 27.1066C20.8889 27.191 20.7833 27.3599 20.7833 27.6133C20.7833 27.8666 20.91 28.0355 21.1633 28.1199L24.9633 30.2733C25.2167 30.5266 25.4067 30.8221 25.5333 31.1599C25.66 31.4977 25.6178 31.8355 25.4067 32.1733C25.1955 32.511 24.9211 32.7221 24.5833 32.8066C24.2455 32.891 23.9078 32.8488 23.57 32.6799L21.0367 31.1599C20.7833 31.0755 20.53 31.1177 20.2767 31.2866C20.0233 30.8644 19.6644 30.5477 19.2 30.3366C18.7355 30.1255 18.25 30.1044 17.7433 30.2733V30.1466C17.5744 29.5555 17.2155 29.1121 16.6667 28.8166C16.1178 28.521 15.5478 28.4577 14.9567 28.6266H14.83V28.4999C14.6611 27.9088 14.3022 27.4655 13.7533 27.1699C13.2044 26.8744 12.6344 26.7688 12.0433 26.8533L11.9167 26.9799C11.8322 26.4733 11.6211 26.0721 11.2833 25.7766C10.9455 25.481 10.5444 25.291 10.08 25.2066C9.61555 25.1221 9.17222 25.1855 8.74999 25.3966C8.32777 25.6077 7.98999 25.9244 7.73666 26.3466C7.39888 25.7555 6.97666 25.2488 6.46999 24.8266L11.6633 15.8333C13.0144 15.6644 14.5767 15.8755 16.35 16.4666L15.3367 20.1399C15.1678 20.6466 15.1255 21.1533 15.21 21.6599C15.2944 22.1666 15.5055 22.6521 15.8433 23.1166C16.1811 23.581 16.5189 23.8133 16.8567 23.8133C17.1944 23.8133 17.5322 23.5599 17.87 23.0533L17.9967 22.9266C18.5033 22.251 18.9255 21.5333 19.2633 20.7733C19.8544 19.8444 20.2344 19.3377 20.4033 19.2533L21.1633 19.1266L28.7633 23.5599C29.1011 23.7288 29.3333 24.0033 29.46 24.3833C29.5867 24.7633 29.5233 25.1221 29.27 25.4599ZM30.6633 24.1933C30.41 23.4333 29.9878 22.8844 29.3967 22.5466L21.5433 17.9866C21.3744 17.9021 21.2055 17.8599 21.0367 17.8599L20.15 18.1133C19.8122 18.1977 19.5167 18.4088 19.2633 18.7466C19.01 19.0844 18.6722 19.591 18.25 20.2666C17.9122 20.9421 17.49 21.6177 16.9833 22.2933L16.8567 22.5466C16.6033 22.1244 16.4555 21.7655 16.4133 21.4699C16.3711 21.1744 16.3922 20.8577 16.4767 20.5199L17.3633 17.0999C17.4478 16.931 17.5322 16.7621 17.6167 16.5933H17.7433C17.9122 16.4244 18.0811 16.2977 18.25 16.2133L19.1367 15.9599C20.0655 15.4533 21.29 15.1155 22.81 14.9466C24.0767 14.7777 25.3011 14.6933 26.4833 14.6933L31.4233 23.4333L30.6633 24.1933ZM32.5633 22.9266L27.6233 14.3133L31.17 12.2866L36.11 20.8999L32.5633 22.9266ZM15.59 11.6533C15.7589 11.6533 15.8855 11.5899 15.97 11.4633C16.0544 11.3366 16.0967 11.1888 16.0967 11.0199V7.09325C16.0967 6.92436 16.0544 6.77658 15.97 6.64992C15.8855 6.52325 15.7589 6.45992 15.59 6.45992H11.5367C11.3678 6.45992 11.2411 6.52325 11.1567 6.64992C11.0722 6.77658 11.03 6.92436 11.03 7.09325V11.0199C11.03 11.1888 11.0722 11.3366 11.1567 11.4633C11.2411 11.5899 11.3678 11.6533 11.5367 11.6533H15.59ZM12.17 7.59992H14.9567V10.3866H12.17V7.59992ZM14.7033 8.86658L13.8167 10.0066C13.6478 10.091 13.4789 10.1333 13.31 10.1333C13.1411 10.1333 13.0144 10.091 12.93 10.0066L12.4233 9.49992C12.3389 9.41547 12.2967 9.28881 12.2967 9.11992C12.2967 8.95103 12.36 8.80325 12.4867 8.67658C12.6133 8.54992 12.7611 8.48658 12.93 8.48658C13.0989 8.48658 13.2255 8.52881 13.31 8.61325V8.73992L13.8167 8.10658C13.9855 7.9377 14.1755 7.87436 14.3867 7.91658C14.5978 7.95881 14.7455 8.08547 14.83 8.29659C14.9144 8.5077 14.8722 8.69769 14.7033 8.86658ZM17.87 11.2733C17.87 11.1044 17.9333 10.9566 18.06 10.8299C18.1867 10.7033 18.3344 10.6399 18.5033 10.6399H26.4833C26.6522 10.6399 26.7789 10.7033 26.8633 10.8299C26.9478 10.9566 26.99 11.1044 26.99 11.2733C26.99 11.4421 26.9478 11.5899 26.8633 11.7166C26.7789 11.8433 26.6522 11.9066 26.4833 11.9066H18.5033C18.3344 11.9066 18.1867 11.8433 18.06 11.7166C17.9333 11.5899 17.87 11.4421 17.87 11.2733ZM17.87 7.09325C17.87 6.92436 17.9333 6.77658 18.06 6.64992C18.1867 6.52325 18.3344 6.45992 18.5033 6.45992H22.1767C22.3455 6.45992 22.4933 6.52325 22.62 6.64992C22.7467 6.77658 22.81 6.92436 22.81 7.09325C22.81 7.26214 22.7467 7.38881 22.62 7.47325C22.4933 7.5577 22.3455 7.59992 22.1767 7.59992H18.5033C18.3344 7.59992 18.1867 7.5577 18.06 7.47325C17.9333 7.38881 17.87 7.26214 17.87 7.09325ZM17.87 9.11992C17.87 8.95103 17.9333 8.82436 18.06 8.73992C18.1867 8.65547 18.3344 8.61325 18.5033 8.61325H23.6967C23.8655 8.61325 24.0133 8.65547 24.14 8.73992C24.2667 8.82436 24.33 8.95103 24.33 9.11992C24.33 9.28881 24.2667 9.43658 24.14 9.56325C24.0133 9.68992 23.8655 9.75325 23.6967 9.75325H18.5033C18.3344 9.75325 18.1867 9.68992 18.06 9.56325C17.9333 9.43658 17.87 9.28881 17.87 9.11992Z" fill="#0E2A46"/>
</svg>
