<svg width="98" height="98" viewBox="0 0 98 98" fill="none" xmlns="http://www.w3.org/2000/svg">
<rect x="9.75" y="9.75" width="78" height="78" rx="39" fill="#FC9F0B"/>
<g clip-path="url(#clip0_2_2242)">
<path d="M62.4201 64.09C61.9134 61.5567 61.4489 59.2344 61.0267 57.1233L60.7734 55.9833C60.5201 54.8011 59.8867 53.9567 58.8734 53.45C58.6201 53.2811 58.3667 53.1544 58.1134 53.07L53.8067 51.55L52.4134 50.6633V49.5233C53.4267 48.9322 54.2289 48.1511 54.8201 47.18C55.4112 46.2089 55.7912 45.1744 55.9601 44.0767C56.8045 44.0767 57.4589 43.76 57.9234 43.1267C58.3878 42.4933 58.4512 41.7967 58.1134 41.0367V36.6033C58.1134 35.1678 57.7756 33.9856 57.1001 33.0567C56.7623 32.55 56.2978 32.17 55.7067 31.9167C54.4401 30.3122 52.7089 29.32 50.5134 28.94C48.3178 28.56 46.2489 28.8344 44.3067 29.7633C43.7156 30.1011 43.1245 30.5233 42.5334 31.03C42.4489 31.1144 42.3856 31.2411 42.3434 31.41C42.3012 31.5789 42.3434 31.7056 42.4701 31.79C42.5967 31.8744 42.7234 31.9378 42.8501 31.98C42.9767 32.0222 43.1245 31.9589 43.2934 31.79C44.4756 30.8611 45.8267 30.27 47.3467 30.0167C48.8667 29.7633 50.3023 29.89 51.6534 30.3967C53.0045 30.9033 54.1023 31.6633 54.9467 32.6767C55.0312 32.7611 55.1156 32.8033 55.2001 32.8033C55.5378 32.9722 55.8334 33.2256 56.0867 33.5633C56.6778 34.3233 56.9734 35.3367 56.9734 36.6033V40.0233C56.6356 39.9389 56.2978 39.8967 55.9601 39.8967V37.9967C55.9601 37.8278 55.8756 37.6589 55.7067 37.49C55.5378 37.3211 55.3689 37.1944 55.2001 37.11C54.4401 37.11 53.8489 36.73 53.4267 35.97C53.2578 35.6322 53.0045 35.4422 52.6667 35.4C52.3289 35.3578 52.0334 35.4633 51.7801 35.7167C50.5978 36.6456 49.2889 37.2367 47.8534 37.49C46.7556 37.7433 45.6156 37.7856 44.4334 37.6167C43.6734 37.5322 42.9978 37.7011 42.4067 38.1233C41.8156 38.5456 41.4778 39.1367 41.3934 39.8967C40.9712 39.8967 40.5912 39.9389 40.2534 40.0233V39.39C40.2534 38.2078 40.2956 37.3211 40.3801 36.73C40.6334 35.6322 41.0556 34.6189 41.6467 33.69C41.7312 33.5211 41.7523 33.3733 41.7101 33.2467C41.6678 33.12 41.5834 33.0144 41.4567 32.93C41.3301 32.8456 41.2034 32.8244 41.0767 32.8667C40.9501 32.9089 40.8445 32.9722 40.7601 33.0567C40.0001 34.1544 39.5356 35.3367 39.3667 36.6033C39.1978 37.3633 39.1556 38.3767 39.2401 39.6433L39.1134 41.0367C38.7756 41.7967 38.8601 42.4933 39.3667 43.1267C39.8734 43.76 40.5489 44.0767 41.3934 44.0767C41.5623 45.6811 42.1956 47.0744 43.2934 48.2567L43.4201 48.3833C43.9267 48.89 44.4756 49.3122 45.0667 49.65V50.6633L43.6734 51.55L40.6334 52.69C39.3667 53.1122 38.6489 53.3656 38.4801 53.45L38.3534 53.5767C37.5089 54.0833 36.9601 54.8011 36.7067 55.73L35.0601 64.09C35.0601 64.3433 35.0601 64.5967 35.0601 64.85C35.1445 65.4411 35.3767 65.9056 35.7567 66.2433C36.1367 66.5811 36.6645 66.75 37.3401 66.75H52.6667C52.8356 66.75 52.9623 66.6867 53.0467 66.56C53.1312 66.4333 53.1734 66.3067 53.1734 66.18C53.1734 66.0533 53.1312 65.9267 53.0467 65.8C52.9623 65.6733 52.8356 65.61 52.6667 65.61H41.2667V60.5433C41.2667 60.3744 41.2034 60.2478 41.0767 60.1633C40.9501 60.0789 40.8234 60.0367 40.6967 60.0367C40.5701 60.0367 40.4434 60.0789 40.3167 60.1633C40.1901 60.2478 40.1267 60.3744 40.1267 60.5433V65.61H37.3401C36.4112 65.61 36.0312 65.1878 36.2001 64.3433L37.4667 57.7567C37.7201 56.5744 37.8889 55.8989 37.9734 55.73V55.6033C38.2267 55.0122 38.6912 54.5478 39.3667 54.21L41.7734 53.45L43.1667 55.8567C43.1667 56.0256 43.2512 56.1311 43.4201 56.1733C43.5889 56.2156 43.7367 56.1944 43.8634 56.11C43.9901 56.0256 44.0745 55.92 44.1167 55.7933C44.1589 55.6667 44.1378 55.5189 44.0534 55.35L42.7867 53.07L43.6734 52.8167L48.1067 61.05C48.2756 61.2189 48.4867 61.3033 48.7401 61.3033C48.9934 61.3033 49.1623 61.2189 49.2467 61.05L53.8067 52.8167L54.6934 53.07L50.1334 61.43C49.7956 61.9367 49.3312 62.19 48.7401 62.19C48.1489 62.19 47.6845 61.9367 47.3467 61.43L45.3201 57.63C45.2356 57.5456 45.1301 57.4822 45.0034 57.44C44.8767 57.3978 44.7289 57.3978 44.5601 57.44C44.3912 57.4822 44.2856 57.5878 44.2434 57.7567C44.2012 57.9256 44.2223 58.0522 44.3067 58.1367L46.3334 61.9367C46.6712 62.5278 47.1567 62.9289 47.7901 63.14C48.4234 63.3511 49.0567 63.3511 49.6901 63.14C50.3234 62.9289 50.8089 62.5278 51.1467 61.9367L55.7067 53.45L57.8601 54.21L58.7467 54.59C59.1689 55.0122 59.4645 55.4767 59.6334 55.9833L61.2801 64.5967C61.3645 65.2722 60.9845 65.61 60.1401 65.61H57.3534V60.5433C57.3534 60.3744 57.2901 60.2478 57.1634 60.1633C57.0367 60.0789 56.9101 60.0367 56.7834 60.0367C56.6567 60.0367 56.5301 60.0789 56.4034 60.1633C56.2767 60.2478 56.2134 60.3744 56.2134 60.5433V65.61H55.2001C55.0312 65.61 54.9045 65.6733 54.8201 65.8C54.7356 65.9267 54.6934 66.0533 54.6934 66.18C54.6934 66.3067 54.7356 66.4333 54.8201 66.56C54.9045 66.6867 55.0312 66.75 55.2001 66.75H60.1401C60.8156 66.75 61.3434 66.5811 61.7234 66.2433C62.1034 65.9056 62.3356 65.4411 62.4201 64.85C62.4201 64.5967 62.4201 64.3433 62.4201 64.09ZM55.9601 41.0367C56.2978 40.9522 56.5934 41.0156 56.8467 41.2267C57.1001 41.4378 57.2267 41.6911 57.2267 41.9867C57.2267 42.2822 57.1001 42.5144 56.8467 42.6833C56.5934 42.8522 56.2978 42.9367 55.9601 42.9367V41.0367ZM41.2667 42.9367C40.9289 42.9367 40.6545 42.8522 40.4434 42.6833C40.2323 42.5144 40.1267 42.2822 40.1267 41.9867C40.1267 41.6911 40.2323 41.4378 40.4434 41.2267C40.6545 41.0156 40.9289 40.9522 41.2667 41.0367V42.9367ZM44.3067 38.7567C45.6578 38.9256 46.9245 38.8833 48.1067 38.63C49.7112 38.2922 51.1467 37.5744 52.4134 36.4767C53.0045 37.49 53.8067 38.0811 54.8201 38.25V40.2767L54.1867 40.6567C53.9334 40.2344 53.5534 40.0233 53.0467 40.0233H50.5134C50.1756 40.0233 49.9012 40.0867 49.6901 40.2133C49.4789 40.34 49.2889 40.5722 49.1201 40.91H48.1067C48.0223 40.5722 47.8534 40.34 47.6001 40.2133C47.3467 40.0867 47.0934 40.0233 46.8401 40.0233H44.1801C43.6734 40.0233 43.2934 40.2344 43.0401 40.6567L42.4067 40.2767C42.4067 39.77 42.5967 39.3689 42.9767 39.0733C43.3567 38.7778 43.8001 38.6722 44.3067 38.7567ZM53.4267 41.4167V42.5567C53.4267 42.81 53.3423 43.0211 53.1734 43.19C53.0045 43.3589 52.7934 43.4433 52.5401 43.4433H51.0201C50.7667 43.4433 50.5556 43.3589 50.3867 43.19C50.2178 43.0211 50.1334 42.81 50.1334 42.5567V41.4167C50.1334 41.1633 50.2601 41.0367 50.5134 41.0367H53.0467C53.3001 41.0367 53.4267 41.1633 53.4267 41.4167ZM47.0934 41.4167V42.5567C47.0934 42.81 47.0089 43.0211 46.8401 43.19C46.6712 43.3589 46.4601 43.4433 46.2067 43.4433H44.8134C44.5601 43.4433 44.3489 43.3589 44.1801 43.19C44.0112 43.0211 43.9267 42.81 43.9267 42.5567V41.4167C43.9267 41.1633 44.0112 41.0367 44.1801 41.0367H46.8401C47.0089 41.0367 47.0934 41.1633 47.0934 41.4167ZM43.9267 47.37C43.2512 46.5256 42.7867 45.6389 42.5334 44.71C42.4489 44.1189 42.4067 43.3167 42.4067 42.3033V41.5433L42.7867 41.7967V42.5567C42.7867 43.0633 42.9767 43.5067 43.3567 43.8867C43.7367 44.2667 44.2223 44.4567 44.8134 44.4567H46.2067C46.7978 44.4567 47.2834 44.2667 47.6634 43.8867C48.0434 43.5067 48.2334 43.0633 48.2334 42.5567V41.9233H48.9934V42.5567C48.9934 43.0633 49.2045 43.5067 49.6267 43.8867C50.0489 44.2667 50.5134 44.4567 51.0201 44.4567H52.5401C53.0467 44.4567 53.4901 44.2667 53.8701 43.8867C54.2501 43.5067 54.4401 43.0633 54.4401 42.5567V41.7967L54.8201 41.5433V43.19C54.8201 44.8789 54.2289 46.3356 53.0467 47.56C51.8645 48.7844 50.3867 49.4389 48.6134 49.5233C48.1912 49.5233 47.7689 49.4811 47.3467 49.3967L46.9667 49.27C45.7845 48.9322 44.7712 48.2989 43.9267 47.37ZM48.7401 53.5767L46.2067 50.6633V50.1567C47.3889 50.5789 48.5712 50.7056 49.7534 50.5367L50.5134 50.2833L51.2734 50.1567V50.6633L48.7401 53.5767ZM49.3734 55.4767L49.1201 55.9833H48.3601L48.1067 55.4767L48.7401 55.0967L49.3734 55.4767ZM47.2201 56.9967L46.9667 56.3633L47.2201 56.2367L47.4734 56.6167L47.2201 56.9967ZM46.3334 55.35L44.6867 52.31L45.5734 51.6767L47.8534 54.3367L46.3334 55.35ZM48.7401 59.7833L47.9801 58.39L48.3601 57.1233H49.1201L49.5001 58.39L48.7401 59.7833ZM50.2601 56.9967L50.0067 56.6167L50.2601 56.2367L50.5134 56.3633L50.2601 56.9967ZM51.1467 55.35C50.7245 55.0967 50.2178 54.7589 49.6267 54.3367L51.9067 51.6767L52.7934 52.31L51.1467 55.35Z" fill="#0E2A46"/>
</g>
<rect x="0.5" y="0.5" width="96.5" height="96.5" rx="48.25" stroke="#0E2A46" stroke-dasharray="3 2"/>
<defs>
<clipPath id="clip0_2_2242">
<rect width="38.02" height="38" fill="white" transform="matrix(1 0 0 -1 29.73 66.75)"/>
</clipPath>
</defs>
</svg>