<svg width="39" height="38" viewBox="0 0 39 38" fill="none" xmlns="http://www.w3.org/2000/svg">
<g clip-path="url(#clip0_1_2134)">
<path d="M32.69 35.34C32.1833 32.8067 31.7189 30.4844 31.2967 28.3733L31.0434 27.2333C30.79 26.0511 30.1567 25.2067 29.1434 24.7C28.89 24.5311 28.6367 24.4044 28.3834 24.32L24.0767 22.8L22.6833 21.9133V20.7733C23.6967 20.1822 24.4989 19.4011 25.09 18.43C25.6811 17.4589 26.0611 16.4244 26.23 15.3267C27.0745 15.3267 27.7289 15.01 28.1933 14.3767C28.6578 13.7433 28.7211 13.0467 28.3834 12.2867V7.85333C28.3834 6.41778 28.0456 5.23556 27.37 4.30667C27.0322 3.8 26.5678 3.42 25.9767 3.16667C24.71 1.56222 22.9789 0.57 20.7833 0.189999C18.5878 -0.189999 16.5189 0.084446 14.5767 1.01333C13.9856 1.35111 13.3945 1.77333 12.8034 2.28C12.7189 2.36444 12.6556 2.49111 12.6134 2.66C12.5711 2.82889 12.6134 2.95555 12.74 3.04C12.8667 3.12444 12.9934 3.18778 13.12 3.23C13.2467 3.27222 13.3945 3.20889 13.5634 3.04C14.7456 2.11111 16.0967 1.52 17.6167 1.26667C19.1367 1.01333 20.5722 1.14 21.9233 1.64667C23.2745 2.15334 24.3722 2.91333 25.2167 3.92667C25.3011 4.01111 25.3856 4.05333 25.47 4.05333C25.8078 4.22222 26.1033 4.47556 26.3567 4.81334C26.9478 5.57333 27.2434 6.58667 27.2434 7.85333V11.2733C26.9056 11.1889 26.5678 11.1467 26.23 11.1467V9.24667C26.23 9.07778 26.1456 8.90889 25.9767 8.74C25.8078 8.57111 25.6389 8.44444 25.47 8.36C24.71 8.36 24.1189 7.98 23.6967 7.22C23.5278 6.88222 23.2745 6.69222 22.9367 6.65C22.5989 6.60778 22.3034 6.71333 22.05 6.96667C20.8678 7.89556 19.5589 8.48667 18.1234 8.74C17.0256 8.99333 15.8856 9.03556 14.7034 8.86667C13.9433 8.78222 13.2678 8.95111 12.6767 9.37333C12.0856 9.79556 11.7478 10.3867 11.6634 11.1467C11.2411 11.1467 10.8611 11.1889 10.5234 11.2733V10.64C10.5234 9.45778 10.5656 8.57111 10.65 7.98C10.9034 6.88222 11.3256 5.86889 11.9167 4.94C12.0011 4.77111 12.0222 4.62333 11.98 4.49667C11.9378 4.37 11.8534 4.26445 11.7267 4.18C11.6 4.09555 11.4734 4.07444 11.3467 4.11667C11.22 4.15889 11.1145 4.22222 11.03 4.30667C10.27 5.40445 9.80557 6.58667 9.63668 7.85333C9.46779 8.61333 9.42557 9.62667 9.51002 10.8933L9.38335 12.2867C9.04557 13.0467 9.13002 13.7433 9.63668 14.3767C10.1434 15.01 10.8189 15.3267 11.6634 15.3267C11.8322 16.9311 12.4656 18.3244 13.5634 19.5067L13.69 19.6333C14.1967 20.14 14.7456 20.5622 15.3367 20.9V21.9133L13.9433 22.8L10.9034 23.94C9.63668 24.3622 8.91891 24.6156 8.75002 24.7L8.62335 24.8267C7.77891 25.3333 7.23002 26.0511 6.97668 26.98L5.33002 35.34C5.33002 35.5933 5.33002 35.8467 5.33002 36.1C5.41446 36.6911 5.64668 37.1556 6.02668 37.4933C6.40668 37.8311 6.93446 38 7.61002 38H22.9367C23.1056 38 23.2322 37.9367 23.3167 37.81C23.4011 37.6833 23.4433 37.5567 23.4433 37.43C23.4433 37.3033 23.4011 37.1767 23.3167 37.05C23.2322 36.9233 23.1056 36.86 22.9367 36.86H11.5367V31.7933C11.5367 31.6244 11.4734 31.4978 11.3467 31.4133C11.22 31.3289 11.0934 31.2867 10.9667 31.2867C10.84 31.2867 10.7134 31.3289 10.5867 31.4133C10.46 31.4978 10.3967 31.6244 10.3967 31.7933V36.86H7.61002C6.68113 36.86 6.30113 36.4378 6.47002 35.5933L7.73668 29.0067C7.99002 27.8244 8.15891 27.1489 8.24335 26.98V26.8533C8.49668 26.2622 8.96113 25.7978 9.63668 25.46L12.0434 24.7L13.4367 27.1067C13.4367 27.2756 13.5211 27.3811 13.69 27.4233C13.8589 27.4656 14.0067 27.4444 14.1334 27.36C14.26 27.2756 14.3445 27.17 14.3867 27.0433C14.4289 26.9167 14.4078 26.7689 14.3233 26.6L13.0567 24.32L13.9433 24.0667L18.3767 32.3C18.5456 32.4689 18.7567 32.5533 19.01 32.5533C19.2634 32.5533 19.4322 32.4689 19.5167 32.3L24.0767 24.0667L24.9634 24.32L20.4033 32.68C20.0656 33.1867 19.6011 33.44 19.01 33.44C18.4189 33.44 17.9545 33.1867 17.6167 32.68L15.59 28.88C15.5056 28.7956 15.4 28.7322 15.2734 28.69C15.1467 28.6478 14.9989 28.6478 14.83 28.69C14.6611 28.7322 14.5556 28.8378 14.5134 29.0067C14.4711 29.1756 14.4922 29.3022 14.5767 29.3867L16.6034 33.1867C16.9411 33.7778 17.4267 34.1789 18.06 34.39C18.6933 34.6011 19.3267 34.6011 19.96 34.39C20.5934 34.1789 21.0789 33.7778 21.4167 33.1867L25.9767 24.7L28.13 25.46L29.0167 25.84C29.4389 26.2622 29.7345 26.7267 29.9034 27.2333L31.55 35.8467C31.6345 36.5222 31.2545 36.86 30.41 36.86H27.6234V31.7933C27.6234 31.6244 27.56 31.4978 27.4333 31.4133C27.3067 31.3289 27.18 31.2867 27.0534 31.2867C26.9267 31.2867 26.8 31.3289 26.6733 31.4133C26.5467 31.4978 26.4834 31.6244 26.4834 31.7933V36.86H25.47C25.3011 36.86 25.1745 36.9233 25.09 37.05C25.0056 37.1767 24.9634 37.3033 24.9634 37.43C24.9634 37.5567 25.0056 37.6833 25.09 37.81C25.1745 37.9367 25.3011 38 25.47 38H30.41C31.0856 38 31.6133 37.8311 31.9934 37.4933C32.3734 37.1556 32.6056 36.6911 32.69 36.1C32.69 35.8467 32.69 35.5933 32.69 35.34ZM26.23 12.2867C26.5678 12.2022 26.8633 12.2656 27.1167 12.4767C27.37 12.6878 27.4967 12.9411 27.4967 13.2367C27.4967 13.5322 27.37 13.7644 27.1167 13.9333C26.8633 14.1022 26.5678 14.1867 26.23 14.1867V12.2867ZM11.5367 14.1867C11.1989 14.1867 10.9245 14.1022 10.7134 13.9333C10.5022 13.7644 10.3967 13.5322 10.3967 13.2367C10.3967 12.9411 10.5022 12.6878 10.7134 12.4767C10.9245 12.2656 11.1989 12.2022 11.5367 12.2867V14.1867ZM14.5767 10.0067C15.9278 10.1756 17.1945 10.1333 18.3767 9.88C19.9811 9.54222 21.4167 8.82445 22.6833 7.72667C23.2745 8.74 24.0767 9.33111 25.09 9.5V11.5267L24.4567 11.9067C24.2034 11.4844 23.8234 11.2733 23.3167 11.2733H20.7833C20.4456 11.2733 20.1711 11.3367 19.96 11.4633C19.7489 11.59 19.5589 11.8222 19.39 12.16H18.3767C18.2922 11.8222 18.1234 11.59 17.87 11.4633C17.6167 11.3367 17.3633 11.2733 17.11 11.2733H14.45C13.9433 11.2733 13.5634 11.4844 13.31 11.9067L12.6767 11.5267C12.6767 11.02 12.8667 10.6189 13.2467 10.3233C13.6267 10.0278 14.07 9.92222 14.5767 10.0067ZM23.6967 12.6667V13.8067C23.6967 14.06 23.6122 14.2711 23.4433 14.44C23.2745 14.6089 23.0634 14.6933 22.81 14.6933H21.29C21.0367 14.6933 20.8256 14.6089 20.6567 14.44C20.4878 14.2711 20.4033 14.06 20.4033 13.8067V12.6667C20.4033 12.4133 20.53 12.2867 20.7833 12.2867H23.3167C23.57 12.2867 23.6967 12.4133 23.6967 12.6667ZM17.3633 12.6667V13.8067C17.3633 14.06 17.2789 14.2711 17.11 14.44C16.9411 14.6089 16.73 14.6933 16.4767 14.6933H15.0834C14.83 14.6933 14.6189 14.6089 14.45 14.44C14.2811 14.2711 14.1967 14.06 14.1967 13.8067V12.6667C14.1967 12.4133 14.2811 12.2867 14.45 12.2867H17.11C17.2789 12.2867 17.3633 12.4133 17.3633 12.6667ZM14.1967 18.62C13.5211 17.7756 13.0567 16.8889 12.8034 15.96C12.7189 15.3689 12.6767 14.5667 12.6767 13.5533V12.7933L13.0567 13.0467V13.8067C13.0567 14.3133 13.2467 14.7567 13.6267 15.1367C14.0067 15.5167 14.4922 15.7067 15.0834 15.7067H16.4767C17.0678 15.7067 17.5534 15.5167 17.9334 15.1367C18.3134 14.7567 18.5034 14.3133 18.5034 13.8067V13.1733H19.2634V13.8067C19.2634 14.3133 19.4745 14.7567 19.8967 15.1367C20.3189 15.5167 20.7833 15.7067 21.29 15.7067H22.81C23.3167 15.7067 23.76 15.5167 24.14 15.1367C24.52 14.7567 24.71 14.3133 24.71 13.8067V13.0467L25.09 12.7933V14.44C25.09 16.1289 24.4989 17.5856 23.3167 18.81C22.1345 20.0344 20.6567 20.6889 18.8834 20.7733C18.4611 20.7733 18.0389 20.7311 17.6167 20.6467L17.2367 20.52C16.0545 20.1822 15.0411 19.5489 14.1967 18.62ZM19.01 24.8267L16.4767 21.9133V21.4067C17.6589 21.8289 18.8411 21.9556 20.0233 21.7867L20.7833 21.5333L21.5434 21.4067V21.9133L19.01 24.8267ZM19.6434 26.7267L19.39 27.2333H18.63L18.3767 26.7267L19.01 26.3467L19.6434 26.7267ZM17.49 28.2467L17.2367 27.6133L17.49 27.4867L17.7434 27.8667L17.49 28.2467ZM16.6034 26.6L14.9567 23.56L15.8434 22.9267L18.1234 25.5867L16.6034 26.6ZM19.01 31.0333L18.25 29.64L18.63 28.3733H19.39L19.77 29.64L19.01 31.0333ZM20.53 28.2467L20.2767 27.8667L20.53 27.4867L20.7833 27.6133L20.53 28.2467ZM21.4167 26.6C20.9945 26.3467 20.4878 26.0089 19.8967 25.5867L22.1767 22.9267L23.0634 23.56L21.4167 26.6Z" fill="#0E2A46"/>
</g>
<defs>
<clipPath id="clip0_1_2134">
<rect width="38.02" height="38" fill="white" transform="matrix(1 0 0 -1 0 38)"/>
</clipPath>
</defs>
</svg>
