<svg width="10" height="7" viewBox="0 0 10 7" fill="none" xmlns="http://www.w3.org/2000/svg">
<path d="M4.43359 6.17017L0.216797 1.95337C0.0721029 1.80868 -0.000244141 1.63298 -0.000244141 1.42627C-0.000244141 1.21956 0.0721029 1.04386 0.216797 0.89917L0.929932 0.217041C1.07463 0.072347 1.25033 0 1.45703 0C1.66374 0 1.83944 0.072347 1.98413 0.217041L4.96069 3.1936L7.93726 0.217041C8.08195 0.072347 8.25765 0 8.46436 0C8.67106 0 8.84676 0.072347 8.99146 0.217041L9.70459 0.89917C9.84928 1.04386 9.92163 1.21956 9.92163 1.42627C9.92163 1.63298 9.84928 1.80868 9.70459 1.95337L5.48779 6.17017C5.3431 6.31486 5.1674 6.38721 4.96069 6.38721C4.75399 6.38721 4.57829 6.31486 4.43359 6.17017Z" fill="#0E2A46"/>
</svg>
