<svg width="25" height="25" viewBox="0 0 25 25" fill="none" xmlns="http://www.w3.org/2000/svg">
<path d="M24.7628 23.6399L18.3082 17.2884C19.9984 15.452 21.037 13.0234 21.037 10.3509C21.0362 4.63387 16.3273 0 10.5181 0C4.70891 0 0 4.63387 0 10.3509C0 16.0678 4.70891 20.7017 10.5181 20.7017C13.0281 20.7017 15.3301 19.8335 17.1384 18.3902L23.618 24.7667C23.9338 25.0777 24.4463 25.0777 24.7621 24.7667C25.0785 24.4557 25.0785 23.9509 24.7628 23.6399ZM10.5181 19.1092C5.60289 19.1092 1.61836 15.1879 1.61836 10.3509C1.61836 5.51376 5.60289 1.59254 10.5181 1.59254C15.4333 1.59254 19.4178 5.51376 19.4178 10.3509C19.4178 15.1879 15.4333 19.1092 10.5181 19.1092Z" fill="#0E2A46"/>
</svg>
