<svg width="40" height="40" viewBox="0 0 40 40" fill="none" xmlns="http://www.w3.org/2000/svg">
<rect width="40" height="40" fill="#00BEAE"/>
<path d="M24.35 22.75C25.2354 22.75 25.988 23.0599 26.6078 23.6797C27.2276 24.2995 27.5375 25.0521 27.5375 25.9375C27.5375 26.8229 27.2276 27.5755 26.6078 28.1953C25.988 28.8151 25.2354 29.125 24.35 29.125C23.4646 29.125 22.712 28.8151 22.0922 28.1953C21.4724 27.5755 21.1625 26.8229 21.1625 25.9375C21.1625 25.694 21.1846 25.4616 21.2289 25.2402L17.8422 23.1152C17.2667 23.5801 16.6026 23.8125 15.85 23.8125C14.9646 23.8125 14.212 23.5026 13.5922 22.8828C12.9724 22.263 12.6625 21.5104 12.6625 20.625C12.6625 19.7396 12.9724 18.987 13.5922 18.3672C14.212 17.7474 14.9646 17.4375 15.85 17.4375C16.6026 17.4375 17.2667 17.6699 17.8422 18.1348L21.2289 16.0098C21.1846 15.7884 21.1625 15.556 21.1625 15.3125C21.1625 14.4271 21.4724 13.6745 22.0922 13.0547C22.712 12.4349 23.4646 12.125 24.35 12.125C25.2354 12.125 25.988 12.4349 26.6078 13.0547C27.2276 13.6745 27.5375 14.4271 27.5375 15.3125C27.5375 16.1979 27.2276 16.9505 26.6078 17.5703C25.988 18.1901 25.2354 18.5 24.35 18.5C23.5974 18.5 22.9333 18.2676 22.3578 17.8027L18.9711 19.9277C19.0154 20.1491 19.0375 20.3815 19.0375 20.625C19.0375 20.8685 19.0154 21.1009 18.9711 21.3223L22.3578 23.4473C22.9333 22.9824 23.5974 22.75 24.35 22.75Z" fill="white"/>
</svg>
